<svg version="1.1" id="Layer_1" xmlns="http://www.w3.org/2000/svg" xmlns:xlink="http://www.w3.org/1999/xlink" x="0px" y="0px"
	 width="100%" viewBox="0 0 246 246" enable-background="new 0 0 246 246" xml:space="preserve">
<path fill="#FFFFFF" opacity="1.000000" stroke="none" 
	d="
M160.000000,247.000000 
	C106.666672,247.000000 53.833340,247.000000 1.000007,247.000000 
	C1.000005,165.000015 1.000005,83.000015 1.000002,1.000018 
	C82.999985,1.000012 164.999969,1.000012 246.999969,1.000006 
	C246.999969,82.999977 246.999969,164.999954 246.999985,246.999969 
	C218.166672,247.000000 189.333328,247.000000 160.000000,247.000000 
M180.018066,138.111343 
	C179.335449,141.872086 178.652832,145.632828 177.817429,150.235428 
	C182.065796,147.896500 185.666458,145.914169 189.853363,143.589661 
	C191.510086,142.620178 193.278900,141.800247 194.804871,140.656342 
	C203.108246,134.431900 211.674576,128.501297 219.512405,121.730980 
	C225.634308,116.442909 230.973618,110.196869 233.444138,102.098160 
	C235.771866,94.467628 230.405472,87.365158 222.525345,86.888725 
	C216.675217,86.535019 211.844894,88.806190 207.693588,92.038399 
	C200.972687,97.271301 194.787354,103.208336 188.532379,109.016594 
	C185.383789,111.940323 182.444733,113.507278 179.001816,108.912476 
	C181.031586,102.128571 182.965652,95.314217 185.112152,88.567451 
	C188.914398,76.616447 194.284836,65.008453 192.036942,51.884079 
	C190.769363,44.483307 185.536880,39.034225 176.437698,37.295666 
	C171.164108,36.288059 163.029465,38.821320 158.994827,44.904396 
	C151.659927,55.963364 150.836563,68.681816 150.082779,81.326797 
	C149.752411,86.869034 149.055054,92.016205 144.063370,96.008522 
	C142.138031,94.902702 139.477310,94.261383 138.428909,92.601631 
	C135.587128,88.102806 133.301270,83.232063 131.030029,78.398338 
	C127.447632,70.774200 124.964325,62.609528 118.293808,56.710644 
	C110.708641,50.002926 97.217079,51.511620 94.713516,60.073536 
	C93.532364,64.112968 93.452690,69.213112 94.846123,73.131271 
	C99.425476,86.007866 104.907539,98.563431 110.031425,111.927460 
	C110.357506,113.224197 110.683594,114.520943 110.295738,115.964935 
	C108.662498,114.941933 107.051231,113.881721 105.392281,112.902252 
	C97.332664,108.143692 89.599724,102.639809 81.097412,98.876846 
	C72.515526,95.078667 65.286339,99.269417 64.758942,108.108467 
	C64.498848,112.467674 66.770630,117.443863 69.129799,121.406845 
	C76.462685,133.724792 87.806580,141.872192 100.427559,147.863785 
	C107.447716,151.196487 115.395477,152.575287 123.663162,155.173050 
	C127.647774,155.942459 131.632385,156.711884 135.635376,157.484848 
	C136.979523,141.848999 138.288010,127.517570 150.771942,116.728867 
	C152.702728,115.765617 154.633514,114.802368 157.338165,113.896301 
	C161.827896,113.595825 166.317612,113.295349 171.143448,113.646355 
	C179.641663,115.588203 182.789108,128.937134 180.018066,138.111343 
M127.008751,170.528961 
	C128.015381,171.352783 128.963104,172.782196 130.039703,172.886932 
	C133.276489,173.201843 136.563522,173.000412 139.692490,173.000412 
	C139.692490,176.002151 139.692490,178.403625 139.692490,181.206604 
	C135.319916,181.206604 131.247299,181.206604 127.315903,181.206604 
	C127.315903,187.026917 127.315903,192.423157 127.315903,197.713898 
	C133.057053,197.713898 138.477570,197.713898 145.019394,197.713898 
	C141.241577,191.082138 135.020111,195.964630 131.320114,193.490860 
	C131.320114,190.638580 131.320114,187.905029 131.320114,184.770660 
	C135.706436,184.770660 139.775360,184.770660 143.672760,184.770660 
	C143.672760,179.283569 143.672760,174.219894 143.672760,168.723694 
	C137.915771,169.025253 132.502792,169.308807 127.008751,170.528961 
M117.238068,197.933456 
	C117.500565,196.705368 117.763069,195.477264 118.110565,193.851532 
	C113.287079,193.851532 109.341866,193.851532 105.000824,193.851532 
	C105.000824,189.519012 105.000824,185.428116 105.000824,180.996857 
	C103.394058,181.151382 102.226265,181.263687 101.211723,181.361267 
	C101.211723,187.071869 101.211723,192.352051 101.211723,198.024490 
	C103.487473,198.024490 105.559738,198.024490 107.778236,198.024490 
	C107.778236,201.163025 107.778236,203.898499 107.778236,207.035614 
	C104.146141,207.035614 100.726715,207.035614 96.968987,207.035614 
	C97.140198,208.643188 97.264633,209.811646 97.369141,210.792908 
	C105.769470,210.792908 113.721214,210.792908 121.914558,210.792908 
	C121.914558,209.630554 122.050644,207.863297 121.894478,207.837097 
	C118.735550,207.306824 115.543076,206.976379 112.221481,206.590027 
	C112.221481,203.812271 112.221481,201.069077 112.221481,197.994110 
	C113.731850,197.994110 115.024544,197.994110 117.238068,197.933456 
M52.015549,182.450958 
	C55.174549,183.213959 58.333553,183.976959 61.650204,184.778046 
	C59.181324,187.661682 56.525879,190.512894 54.217625,193.621841 
	C53.579662,194.481110 53.975037,196.107605 53.896286,197.382065 
	C55.298161,197.058289 57.191452,197.195312 58.008923,196.323532 
	C60.377831,193.797256 62.314606,190.865753 64.508102,187.978577 
	C67.705200,191.587326 70.704224,194.972488 73.889671,198.568100 
	C75.228836,197.307114 76.114914,196.472778 76.835434,195.794327 
	C73.608780,191.865433 70.683632,188.303680 67.147308,183.997726 
	C70.427307,183.997726 72.566467,184.149124 74.664574,183.921783 
	C75.481804,183.833237 76.206558,182.891357 76.973434,182.338181 
	C76.269295,181.893082 75.561035,181.055756 74.861641,181.063110 
	C67.273026,181.142731 59.685810,181.354889 52.015549,182.450958 
M25.379208,180.999924 
	C21.631866,180.999924 17.884527,180.999924 14.334700,180.999924 
	C14.334700,187.070160 14.334700,192.467651 14.334700,197.842926 
	C19.954283,197.842926 25.237196,197.842926 30.935238,197.842926 
	C30.861423,196.499420 30.797426,195.334595 30.711496,193.770569 
	C26.274532,193.770569 22.201065,193.770569 18.334156,193.770569 
	C18.334156,190.609283 18.334156,187.875381 18.334156,184.997421 
	C21.148748,184.997421 23.636927,185.108902 26.110155,184.964417 
	C28.349346,184.833603 32.024818,186.300018 30.652489,180.999924 
	C29.256451,180.999924 27.797218,180.999924 25.379208,180.999924 
M46.422527,157.092651 
	C44.550240,156.889481 42.894344,156.577927 42.946602,159.546509 
	C43.100166,168.270737 43.001339,176.999405 43.001339,185.778320 
	C44.523129,185.778320 45.589035,185.778320 46.946693,185.778320 
	C46.946693,176.336365 46.946693,167.103516 46.422527,157.092651 
M88.999825,168.519287 
	C88.999825,174.302567 88.999825,180.085846 88.999825,185.869125 
	C89.412842,186.111008 89.825867,186.352890 90.238884,186.594757 
	C91.158043,185.720184 92.856026,184.862900 92.875877,183.968353 
	C93.074272,175.026886 92.996361,166.079285 92.996361,157.133423 
	C92.432976,156.910767 91.869591,156.688095 91.306213,156.465439 
	C90.537552,157.654465 89.287277,158.773880 89.103180,160.047394 
	C88.749443,162.494629 88.999954,165.029190 88.999825,168.519287 
M157.532425,157.008530 
	C157.021530,158.153076 156.086472,159.290848 156.068054,160.443283 
	C155.941147,168.381180 156.000717,176.322189 156.021439,184.262131 
	C156.022659,184.729095 156.207169,185.195557 156.369797,185.960434 
	C157.598816,185.849243 158.759155,185.744278 159.999695,185.632065 
	C159.999695,176.806213 160.049927,168.375565 159.932220,159.947266 
	C159.918442,158.961121 158.978271,157.987930 157.532425,157.008530 
M160.625839,144.117493 
	C158.772583,144.226883 156.791779,144.004745 155.140793,144.639908 
	C154.619644,144.840424 154.422272,147.744705 155.096161,148.665253 
	C155.769028,149.584381 158.593338,150.270416 158.945511,149.831589 
	C160.015747,148.498047 160.347076,146.571487 160.625839,144.117493 
z"/>
<path fill="#0CB14B" opacity="1.000000" stroke="none" 
	d="
M144.797256,96.023834 
	C149.055054,92.016205 149.752411,86.869034 150.082779,81.326797 
	C150.836563,68.681816 151.659927,55.963364 158.994827,44.904396 
	C163.029465,38.821320 171.164108,36.288059 176.437698,37.295666 
	C185.536880,39.034225 190.769363,44.483307 192.036942,51.884079 
	C194.284836,65.008453 188.914398,76.616447 185.112152,88.567451 
	C182.965652,95.314217 181.031586,102.128571 178.609772,109.395462 
	C175.747589,110.917259 173.277466,111.956070 170.807343,112.994873 
	C166.317612,113.295349 161.827896,113.595825 156.800034,113.541077 
	C152.440353,107.465179 148.618805,101.744507 144.797256,96.023834 
z"/>
<path fill="#ED193A" opacity="1.000000" stroke="none" 
	d="
M144.430313,96.016174 
	C148.618805,101.744507 152.440353,107.465179 156.413101,113.512489 
	C154.633514,114.802368 152.702728,115.765617 150.132660,116.597626 
	C136.160934,116.101318 122.784111,116.071350 110.042770,111.242348 
	C104.907539,98.563431 99.425476,86.007866 94.846123,73.131271 
	C93.452690,69.213112 93.532364,64.112968 94.713516,60.073536 
	C97.217079,51.511620 110.708641,50.002926 118.293808,56.710644 
	C124.964325,62.609528 127.447632,70.774200 131.030029,78.398338 
	C133.301270,83.232063 135.587128,88.102806 138.428909,92.601631 
	C139.477310,94.261383 142.138031,94.902702 144.430313,96.016174 
z"/>
<path fill="#0171BC" opacity="1.000000" stroke="none" 
	d="
M122.925186,154.834686 
	C115.395477,152.575287 107.447716,151.196487 100.427559,147.863785 
	C87.806580,141.872192 76.462685,133.724792 69.129799,121.406845 
	C66.770630,117.443863 64.498848,112.467674 64.758942,108.108467 
	C65.286339,99.269417 72.515526,95.078667 81.097412,98.876846 
	C89.599724,102.639809 97.332664,108.143692 105.392281,112.902252 
	C107.051231,113.881721 108.662498,114.941933 110.981613,116.001289 
	C114.475090,120.434067 118.622345,124.503571 119.792725,129.299530 
	C121.811806,137.573334 121.980232,146.298752 122.925186,154.834686 
z"/>
<path fill="#231F20" opacity="1.000000" stroke="none" 
	d="
M170.975403,113.320618 
	C173.277466,111.956070 175.747589,110.917259 178.582062,109.801949 
	C182.444733,113.507278 185.383789,111.940323 188.532379,109.016594 
	C194.787354,103.208336 200.972687,97.271301 207.693588,92.038399 
	C211.844894,88.806190 216.675217,86.535019 222.525345,86.888725 
	C230.405472,87.365158 235.771866,94.467628 233.444138,102.098160 
	C230.973618,110.196869 225.634308,116.442909 219.512405,121.730980 
	C211.674576,128.501297 203.108246,134.431900 194.804871,140.656342 
	C193.278900,141.800247 191.510086,142.620178 189.401917,143.452271 
	C186.014847,141.317032 183.079224,139.319214 180.143600,137.321396 
	C182.789108,128.937134 179.641663,115.588203 170.975403,113.320618 
z"/>
<path fill="#FEC905" opacity="1.000000" stroke="none" 
	d="
M123.294174,155.003860 
	C121.980232,146.298752 121.811806,137.573334 119.792725,129.299530 
	C118.622345,124.503571 114.475090,120.434067 111.338577,115.927658 
	C110.683594,114.520943 110.357506,113.224197 110.037094,111.584900 
	C122.784111,116.071350 136.160934,116.101318 149.812195,116.747787 
	C138.288010,127.517570 136.979523,141.848999 135.635376,157.484848 
	C131.632385,156.711884 127.647774,155.942459 123.294174,155.003860 
z"/>
<path fill="#231F20" opacity="1.000000" stroke="none" 
	d="
M127.049286,170.060654 
	C132.502792,169.308807 137.915771,169.025253 143.672760,168.723694 
	C143.672760,174.219894 143.672760,179.283569 143.672760,184.770660 
	C139.775360,184.770660 135.706436,184.770660 131.320114,184.770660 
	C131.320114,187.905029 131.320114,190.638580 131.320114,193.490860 
	C135.020111,195.964630 141.241577,191.082138 145.019394,197.713898 
	C138.477570,197.713898 133.057053,197.713898 127.315903,197.713898 
	C127.315903,192.423157 127.315903,187.026917 127.315903,181.206604 
	C131.247299,181.206604 135.319916,181.206604 139.692490,181.206604 
	C139.692490,178.403625 139.692490,176.002151 139.692490,173.000412 
	C136.563522,173.000412 133.276489,173.201843 130.039703,172.886932 
	C128.963104,172.782196 128.015381,171.352783 127.049286,170.060654 
z"/>
<path fill="#231F20" opacity="1.000000" stroke="none" 
	d="
M116.777657,197.963776 
	C115.024544,197.994110 113.731850,197.994110 112.221481,197.994110 
	C112.221481,201.069077 112.221481,203.812271 112.221481,206.590027 
	C115.543076,206.976379 118.735550,207.306824 121.894478,207.837097 
	C122.050644,207.863297 121.914558,209.630554 121.914558,210.792908 
	C113.721214,210.792908 105.769470,210.792908 97.369141,210.792908 
	C97.264633,209.811646 97.140198,208.643188 96.968987,207.035614 
	C100.726715,207.035614 104.146141,207.035614 107.778236,207.035614 
	C107.778236,203.898499 107.778236,201.163025 107.778236,198.024490 
	C105.559738,198.024490 103.487473,198.024490 101.211723,198.024490 
	C101.211723,192.352051 101.211723,187.071869 101.211723,181.361267 
	C102.226265,181.263687 103.394058,181.151382 105.000824,180.996857 
	C105.000824,185.428116 105.000824,189.519012 105.000824,193.851532 
	C109.341866,193.851532 113.287079,193.851532 118.110565,193.851532 
	C117.763069,195.477264 117.500565,196.705368 116.777657,197.963776 
z"/>
<path fill="#231F20" opacity="1.000000" stroke="none" 
	d="
M52.056881,181.990921 
	C59.685810,181.354889 67.273026,181.142731 74.861641,181.063110 
	C75.561035,181.055756 76.269295,181.893082 76.973434,182.338181 
	C76.206558,182.891357 75.481804,183.833237 74.664574,183.921783 
	C72.566467,184.149124 70.427307,183.997726 67.147308,183.997726 
	C70.683632,188.303680 73.608780,191.865433 76.835434,195.794327 
	C76.114914,196.472778 75.228836,197.307114 73.889671,198.568100 
	C70.704224,194.972488 67.705200,191.587326 64.508102,187.978577 
	C62.314606,190.865753 60.377831,193.797256 58.008923,196.323532 
	C57.191452,197.195312 55.298161,197.058289 53.896286,197.382065 
	C53.975037,196.107605 53.579662,194.481110 54.217625,193.621841 
	C56.525879,190.512894 59.181324,187.661682 61.650204,184.778046 
	C58.333553,183.976959 55.174549,183.213959 52.056881,181.990921 
z"/>
<path fill="#231F20" opacity="1.000000" stroke="none" 
	d="
M25.858597,180.999924 
	C27.797218,180.999924 29.256451,180.999924 30.652489,180.999924 
	C32.024818,186.300018 28.349346,184.833603 26.110155,184.964417 
	C23.636927,185.108902 21.148748,184.997421 18.334156,184.997421 
	C18.334156,187.875381 18.334156,190.609283 18.334156,193.770569 
	C22.201065,193.770569 26.274532,193.770569 30.711496,193.770569 
	C30.797426,195.334595 30.861423,196.499420 30.935238,197.842926 
	C25.237196,197.842926 19.954283,197.842926 14.334700,197.842926 
	C14.334700,192.467651 14.334700,187.070160 14.334700,180.999924 
	C17.884527,180.999924 21.631866,180.999924 25.858597,180.999924 
z"/>
<path fill="#231F20" opacity="1.000000" stroke="none" 
	d="
M46.684608,157.481659 
	C46.946693,167.103516 46.946693,176.336365 46.946693,185.778320 
	C45.589035,185.778320 44.523129,185.778320 43.001339,185.778320 
	C43.001339,176.999405 43.100166,168.270737 42.946602,159.546509 
	C42.894344,156.577927 44.550240,156.889481 46.684608,157.481659 
z"/>
<path fill="#231F20" opacity="1.000000" stroke="none" 
	d="
M88.999825,168.023407 
	C88.999954,165.029190 88.749443,162.494629 89.103180,160.047394 
	C89.287277,158.773880 90.537552,157.654465 91.306213,156.465439 
	C91.869591,156.688095 92.432976,156.910767 92.996361,157.133423 
	C92.996361,166.079285 93.074272,175.026886 92.875877,183.968353 
	C92.856026,184.862900 91.158043,185.720184 90.238884,186.594757 
	C89.825867,186.352890 89.412842,186.111008 88.999825,185.869125 
	C88.999825,180.085846 88.999825,174.302567 88.999825,168.023407 
z"/>
<path fill="#231F20" opacity="1.000000" stroke="none" 
	d="
M157.999985,157.008636 
	C158.978271,157.987930 159.918442,158.961121 159.932220,159.947266 
	C160.049927,168.375565 159.999695,176.806213 159.999695,185.632065 
	C158.759155,185.744278 157.598816,185.849243 156.369797,185.960434 
	C156.207169,185.195557 156.022659,184.729095 156.021439,184.262131 
	C156.000717,176.322189 155.941147,168.381180 156.068054,160.443283 
	C156.086472,159.290848 157.021530,158.153076 157.999985,157.008636 
z"/>
<path fill="#FEC905" opacity="1.000000" stroke="none" 
	d="
M180.080841,137.716370 
	C183.079224,139.319214 186.014847,141.317032 189.108795,143.623352 
	C185.666458,145.914169 182.065796,147.896500 177.817429,150.235428 
	C178.652832,145.632828 179.335449,141.872086 180.080841,137.716370 
z"/>
<path fill="#231F20" opacity="1.000000" stroke="none" 
	d="
M160.795990,144.496674 
	C160.347076,146.571487 160.015747,148.498047 158.945511,149.831589 
	C158.593338,150.270416 155.769028,149.584381 155.096161,148.665253 
	C154.422272,147.744705 154.619644,144.840424 155.140793,144.639908 
	C156.791779,144.004745 158.772583,144.226883 160.795990,144.496674 
z"/>
</svg>