<?xml version="1.0" encoding="UTF-8" standalone="no"?>
<!-- Created with Inkscape (http://www.inkscape.org/) -->

<svg
   width="65mm"
   height="65mm"
   viewBox="0 0 65 65"
   version="1.1"
   id="svg3054"
   inkscape:version="1.2.1 (9c6d41e, 2022-07-14)"
   sodipodi:docname="diginori-2-ink.svg"
   xmlns:inkscape="http://www.inkscape.org/namespaces/inkscape"
   xmlns:sodipodi="http://sodipodi.sourceforge.net/DTD/sodipodi-0.dtd"
   xmlns="http://www.w3.org/2000/svg"
   xmlns:svg="http://www.w3.org/2000/svg">
  <sodipodi:namedview
     id="namedview3056"
     pagecolor="#ffffff"
     bordercolor="#000000"
     borderopacity="0.25"
     inkscape:showpageshadow="2"
     inkscape:pageopacity="0.0"
     inkscape:pagecheckerboard="0"
     inkscape:deskcolor="#d1d1d1"
     inkscape:document-units="mm"
     showgrid="false"
     inkscape:zoom="1.4037899"
     inkscape:cx="73.728982"
     inkscape:cy="237.57116"
     inkscape:window-width="1512"
     inkscape:window-height="917"
     inkscape:window-x="0"
     inkscape:window-y="904"
     inkscape:window-maximized="0"
     inkscape:current-layer="layer1" />
  <defs
     id="defs3051">
    <clipPath
       clipPathUnits="userSpaceOnUse"
       id="clipPath1888">
      <g
         id="g1892"
         transform="translate(-434.1836,-684.4766)">
        <path
           d="M 0,841.89 H 595.276 V 0 H 0 Z"
           id="path1890" />
      </g>
    </clipPath>
    <clipPath
       clipPathUnits="userSpaceOnUse"
       id="clipPath1882">
      <g
         id="g1886"
         transform="translate(-492.1348,-697.4277)">
        <path
           d="M 0,841.89 H 595.276 V 0 H 0 Z"
           id="path1884" />
      </g>
    </clipPath>
    <clipPath
       clipPathUnits="userSpaceOnUse"
       id="clipPath1876">
      <g
         id="g1880"
         transform="translate(-455.46,-699.2305)">
        <path
           d="M 0,841.89 H 595.276 V 0 H 0 Z"
           id="path1878" />
      </g>
    </clipPath>
    <clipPath
       clipPathUnits="userSpaceOnUse"
       id="clipPath1870">
      <g
         id="g1874"
         transform="translate(-424.8232,-680.5088)">
        <path
           d="M 0,841.89 H 595.276 V 0 H 0 Z"
           id="path1872" />
      </g>
    </clipPath>
    <clipPath
       clipPathUnits="userSpaceOnUse"
       id="clipPath1864">
      <g
         id="g1868"
         transform="translate(-453.6152,-664.7324)">
        <path
           d="M 0,841.89 H 595.276 V 0 H 0 Z"
           id="path1866" />
      </g>
    </clipPath>
    <clipPath
       clipPathUnits="userSpaceOnUse"
       id="clipPath1858">
      <g
         id="g1862"
         transform="translate(-408.9336,-667.7393)">
        <path
           d="M 0,841.89 H 595.276 V 0 H 0 Z"
           id="path1860" />
      </g>
    </clipPath>
    <clipPath
       clipPathUnits="userSpaceOnUse"
       id="clipPath1852">
      <g
         id="g1856">
        <path
           d="M 0,841.89 H 595.276 V 0 H 0 Z"
           id="path1854" />
      </g>
    </clipPath>
    <clipPath
       clipPathUnits="userSpaceOnUse"
       id="clipPath1846">
      <g
         id="g1850"
         transform="translate(-328.9619,-619.874)">
        <path
           d="M 0,841.89 H 595.276 V 0 H 0 Z"
           id="path1848" />
      </g>
    </clipPath>
    <clipPath
       clipPathUnits="userSpaceOnUse"
       id="clipPath1840">
      <g
         id="g1844">
        <path
           d="M 0,841.89 H 595.276 V 0 H 0 Z"
           id="path1842" />
      </g>
    </clipPath>
    <clipPath
       clipPathUnits="userSpaceOnUse"
       id="clipPath1834">
      <g
         id="g1838"
         transform="translate(-357.5654,-629.9561)">
        <path
           d="M 0,841.89 H 595.276 V 0 H 0 Z"
           id="path1836" />
      </g>
    </clipPath>
    <clipPath
       clipPathUnits="userSpaceOnUse"
       id="clipPath1828">
      <g
         id="g1832"
         transform="translate(-401.583,-619.874)">
        <path
           d="M 0,841.89 H 595.276 V 0 H 0 Z"
           id="path1830" />
      </g>
    </clipPath>
    <clipPath
       clipPathUnits="userSpaceOnUse"
       id="clipPath1822">
      <g
         id="g1826"
         transform="translate(-413.5439,-638.8633)">
        <path
           d="M 0,841.89 H 595.276 V 0 H 0 Z"
           id="path1824" />
      </g>
    </clipPath>
    <clipPath
       clipPathUnits="userSpaceOnUse"
       id="clipPath1816">
      <g
         id="g1820">
        <path
           d="M 0,841.89 H 595.276 V 0 H 0 Z"
           id="path1818" />
      </g>
    </clipPath>
    <clipPath
       clipPathUnits="userSpaceOnUse"
       id="clipPath1810">
      <g
         id="g1814"
         transform="translate(-438.6094,-657.9883)">
        <path
           d="M 0,841.89 H 595.276 V 0 H 0 Z"
           id="path1812" />
      </g>
    </clipPath>
    <clipPath
       clipPathUnits="userSpaceOnUse"
       id="clipPath1804">
      <g
         id="g1808">
        <path
           d="M 0,841.89 H 595.276 V 0 H 0 Z"
           id="path1806" />
      </g>
    </clipPath>
    <clipPath
       clipPathUnits="userSpaceOnUse"
       id="clipPath1798">
      <g
         id="g1802"
         transform="translate(-486.0439,-616.0557)">
        <path
           d="M 0,841.89 H 595.276 V 0 H 0 Z"
           id="path1800" />
      </g>
    </clipPath>
    <clipPath
       clipPathUnits="userSpaceOnUse"
       id="clipPath1792">
      <g
         id="g1796"
         transform="translate(-489.6543,-614.9326)">
        <path
           d="M 0,841.89 H 595.276 V 0 H 0 Z"
           id="path1794" />
      </g>
    </clipPath>
    <clipPath
       clipPathUnits="userSpaceOnUse"
       id="clipPath1786">
      <g
         id="g1790"
         transform="translate(-494.7793,-614.0303)">
        <path
           d="M 0,841.89 H 595.276 V 0 H 0 Z"
           id="path1788" />
      </g>
    </clipPath>
    <clipPath
       clipPathUnits="userSpaceOnUse"
       id="clipPath1780">
      <g
         id="g1784"
         transform="translate(-440.0664,-615.1777)">
        <path
           d="M 0,841.89 H 595.276 V 0 H 0 Z"
           id="path1782" />
      </g>
    </clipPath>
    <clipPath
       clipPathUnits="userSpaceOnUse"
       id="clipPath1774">
      <g
         id="g1778">
        <path
           d="M 0,841.89 H 595.276 V 0 H 0 Z"
           id="path1776" />
      </g>
    </clipPath>
    <clipPath
       clipPathUnits="userSpaceOnUse"
       id="clipPath1768">
      <g
         id="g1772"
         transform="translate(-450.4795,-618.541)">
        <path
           d="M 0,841.89 H 595.276 V 0 H 0 Z"
           id="path1770" />
      </g>
    </clipPath>
    <clipPath
       clipPathUnits="userSpaceOnUse"
       id="clipPath1762">
      <g
         id="g1766">
        <path
           d="M 0,841.89 H 595.276 V 0 H 0 Z"
           id="path1764" />
      </g>
    </clipPath>
    <clipPath
       clipPathUnits="userSpaceOnUse"
       id="clipPath1756">
      <g
         id="g1760"
         transform="translate(-461.5303,-616.1045)">
        <path
           d="M 0,841.89 H 595.276 V 0 H 0 Z"
           id="path1758" />
      </g>
    </clipPath>
    <clipPath
       clipPathUnits="userSpaceOnUse"
       id="clipPath1750">
      <g
         id="g1754"
         transform="translate(-468.4639,-615.791)">
        <path
           d="M 0,841.89 H 595.276 V 0 H 0 Z"
           id="path1752" />
      </g>
    </clipPath>
    <clipPath
       clipPathUnits="userSpaceOnUse"
       id="clipPath1744">
      <g
         id="g1748"
         transform="translate(-473.9756,-618.5254)">
        <path
           d="M 0,841.89 H 595.276 V 0 H 0 Z"
           id="path1746" />
      </g>
    </clipPath>
    <clipPath
       clipPathUnits="userSpaceOnUse"
       id="clipPath1738">
      <g
         id="g1742">
        <path
           d="M 0,841.89 H 595.276 V 0 H 0 Z"
           id="path1740" />
      </g>
    </clipPath>
  </defs>
  <g
     inkscape:label="Layer 1"
     inkscape:groupmode="layer"
     id="layer1">
    <g
       id="g641"
       transform="matrix(0.35277777,0,0,-0.35277777,40.22689,29.126772)"
       clip-path="url(#clipPath1888)">
      <path
         d="m 0,0 c -2.496,3.538 -5.446,7.229 -7.625,11.078 -2.142,-0.708 -4.877,1.242 -7.787,6.699 -4.924,9.078 -8.084,26.291 -20.762,25.721 -20.279,-0.922 -2.159,-30.093 2.786,-43.41 7.008,-3.411 17.629,-3.829 24.028,-4.056 1.904,-0.067 3.839,-0.038 5.791,0.085 1.412,0.987 2.99,1.787 4.758,2.34 C 0.789,-1.032 0.39,-0.52 0,0"
         style="fill:#e96b71;fill-opacity:1;fill-rule:nonzero;stroke:none"
         id="path643" />
    </g>
    <g
       id="g645"
       transform="matrix(0.35277777,0,0,-0.35277777,60.67079,24.557912)"
       clip-path="url(#clipPath1882)">
      <path
         d="m 0,0 c -7.682,13.708 -24.521,-3.331 -31.503,-10.852 -3.743,-4.034 -8.423,-3.859 -8.686,-0.713 -2.135,-0.956 -4.332,-1.791 -6.569,-2.5 8.066,-1.911 9.487,-9.901 8.238,-18.63 2.028,-1.543 4.124,-2.995 6.274,-4.349 5.228,3.23 11.871,7.676 16.688,11.69 C -9.755,-20.521 4.523,-8.064 0,0"
         style="fill:#231f20;fill-opacity:1;fill-rule:nonzero;stroke:none"
         id="path647" />
    </g>
    <g
       id="g649"
       transform="matrix(0.35277777,0,0,-0.35277777,47.73274,23.921924)"
       clip-path="url(#clipPath1876)">
      <path
         d="m 0,0 c 3.026,7.941 8.321,21.938 6.051,30.636 -2.271,9.079 -13.991,12.482 -21.183,6.81 -7.94,-6.429 -9.075,-21.184 -9.455,-30.636 -0.392,-5.89 -2.009,-9.732 -4.314,-10.486 2.178,-3.848 5.129,-7.54 7.625,-11.078 0.389,-0.519 0.789,-1.032 1.189,-1.543 0.966,0.3 1.982,0.547 3.066,0.693 2.724,0.307 5.02,0.192 6.938,-0.264 2.236,0.709 4.434,1.545 6.568,2.5 C -3.822,-9.714 -1.422,-3.658 0,0"
         style="fill:#cddb95;fill-opacity:1;fill-rule:nonzero;stroke:none"
         id="path651" />
    </g>
    <g
       id="g653"
       transform="matrix(0.35277777,0,0,-0.35277777,36.92475,30.526524)"
       clip-path="url(#clipPath1870)">
      <path
         d="m 0,0 c -6.396,0.227 -17.02,0.645 -24.032,4.056 0.536,-1.433 0.894,-2.632 1.004,-3.508 3.448,-3.34 5.896,-7.559 7.138,-13.318 1.129,-4.875 1.494,-10.487 1.131,-15.867 1.713,-0.407 3.381,-0.748 4.922,-1.06 1.414,-0.213 2.826,-0.381 4.23,-0.5 0.144,4.687 1.231,9.689 1.917,13.459 1.209,6.634 4.146,13.102 9.481,16.819 C 3.844,-0.042 1.904,-0.067 0,0"
         style="fill:#fadc38;fill-opacity:1;fill-rule:nonzero;stroke:none"
         id="path655" />
    </g>
    <g
       id="g657"
       transform="matrix(0.35277777,0,0,-0.35277777,47.08193,36.092087)"
       clip-path="url(#clipPath1864)">
      <path
         d="m 0,0 c -0.421,-2.905 -1.126,-5.889 -1.985,-8.756 2.841,1.275 5.591,2.758 8.258,4.402 C 4.124,-2.995 2.031,-1.539 0,0"
         style="fill:#fadc38;fill-opacity:1;fill-rule:nonzero;stroke:none"
         id="path659" />
    </g>
    <g
       id="g661"
       transform="matrix(0.35277777,0,0,-0.35277777,31.31926,35.03132)"
       clip-path="url(#clipPath1858)">
      <path
         d="M 0,0 C -1.242,5.759 -3.69,9.978 -7.139,13.317 -7.083,12.851 -7.093,12.478 -7.187,12.2 -14.37,14.469 -34.348,36.494 -41.56,21.337 -46.269,11.443 -23.218,-12.185 1.131,-15.867 1.493,-10.487 1.127,-4.875 0,0"
         style="fill:#95d4f1;fill-opacity:1;fill-rule:nonzero;stroke:none"
         id="path663" />
    </g>
    <path
       d="m 350.471,628.78 h 2.403 v 21.219 h -2.403 z"
       style="fill:#231f20;fill-opacity:1;fill-rule:nonzero;stroke:none"
       id="path665"
       clip-path="url(#clipPath1852)"
       transform="matrix(0.35277777,0,0,-0.35277777,-112.94343,270.5949)" />
    <g
       id="g667"
       transform="matrix(0.35277777,0,0,-0.35277777,3.10702,51.917134)"
       clip-path="url(#clipPath1846)">
      <path
         d="M 0,0 H 12.191 V 2.227 H 2.402 v 7.855 h 9.789 v 2.226 H 0 Z"
         style="fill:#231f20;fill-opacity:1;fill-rule:nonzero;stroke:none"
         id="path669" />
    </g>
    <path
       d="m 384.934,628.78 h 2.401 v 21.219 h -2.401 z"
       style="fill:#231f20;fill-opacity:1;fill-rule:nonzero;stroke:none"
       id="path671"
       clip-path="url(#clipPath1840)"
       transform="matrix(0.35277777,0,0,-0.35277777,-112.94343,270.5949)" />
    <g
       id="g673"
       transform="matrix(0.35277777,0,0,-0.35277777,13.1977,48.360393)"
       clip-path="url(#clipPath1834)">
      <path
         d="m 0,0 h 7.91 l -7.441,-8.911 1.815,-1.465 6.739,8.204 6.742,-8.204 1.817,1.465 L 10.193,0 h 7.86 V 2.226 H 0 Z"
         style="fill:#231f20;fill-opacity:1;fill-rule:nonzero;stroke:none"
         id="path675" />
    </g>
    <g
       id="g677"
       transform="matrix(0.35277777,0,0,-0.35277777,28.72613,51.917134)"
       clip-path="url(#clipPath1828)">
      <path
         d="M 0,0 H 4.866 V 2.227 H -4.921 V 12.308 H -7.327 V 0 h 4.864 v -7.271 h -7.792 v -2.223 h 18.05 v 2.223 H 0 Z"
         style="fill:#231f20;fill-opacity:1;fill-rule:nonzero;stroke:none"
         id="path679" />
    </g>
    <g
       id="g681"
       transform="matrix(0.35277777,0,0,-0.35277777,32.94567,45.218131)"
       clip-path="url(#clipPath1822)">
      <path
         d="M 0,0 H 9.786 V -7.269 H 0 v -11.72 h 12.187 v 2.226 H 2.401 v 7.267 h 9.786 V 2.228 H 0 Z"
         style="fill:#231f20;fill-opacity:1;fill-rule:nonzero;stroke:none"
         id="path683" />
    </g>
    <path
       d="m 435.052,628.78 h 2.403 v 21.219 h -2.403 z"
       style="fill:#231f20;fill-opacity:1;fill-rule:nonzero;stroke:none"
       id="path685"
       clip-path="url(#clipPath1816)"
       transform="matrix(0.35277777,0,0,-0.35277777,-112.94343,270.5949)" />
    <g
       id="g687"
       transform="matrix(0.35277777,0,0,-0.35277777,41.78822,38.471256)"
       clip-path="url(#clipPath1810)">
      <path
         d="m 0,0 c 0,1.281 -1.041,2.32 -2.323,2.32 -1.284,0 -2.324,-1.039 -2.324,-2.32 0,-1.289 1.04,-2.327 2.324,-2.327 C -1.041,-2.327 0,-1.289 0,0"
         style="fill:#231f20;fill-opacity:1;fill-rule:nonzero;stroke:none"
         id="path689" />
    </g>
  </g>
</svg>
