<svg version="1.1" id="Layer_1" xmlns="http://www.w3.org/2000/svg" xmlns:xlink="http://www.w3.org/1999/xlink" x="0px" y="0px"
	 width="100%" viewBox="0 0 246 246" enable-background="new 0 0 246 246" xml:space="preserve">
<path fill="#FFFFFF" opacity="1.000000" stroke="none" 
	d="
M159.000000,247.000000 
	C106.000000,247.000000 53.500008,247.000000 1.000007,247.000000 
	C1.000005,165.000015 1.000005,83.000015 1.000002,1.000018 
	C82.999985,1.000012 164.999969,1.000012 246.999969,1.000006 
	C246.999969,82.999977 246.999969,164.999954 246.999985,246.999969 
	C217.833328,247.000000 188.666672,247.000000 159.000000,247.000000 
M178.390778,138.261856 
	C177.618103,142.027771 176.845428,145.793686 175.810623,150.837234 
	C180.337891,148.108643 183.887482,145.969299 188.106781,143.953247 
	C190.108276,142.631012 192.138641,141.350250 194.106583,139.979828 
	C206.975037,131.018616 219.979630,122.224297 228.795090,108.736877 
	C233.047607,102.230629 233.146194,95.240631 228.790909,90.305481 
	C225.153366,86.183655 218.172165,85.670792 211.582260,88.864937 
	C202.744186,93.148766 195.608307,99.614288 189.114609,106.744896 
	C183.858002,112.517105 180.346649,113.446960 177.081665,108.145363 
	C180.021957,99.424759 183.423935,90.826233 185.771347,81.948853 
	C188.072037,73.248154 190.237549,64.319321 190.767532,55.390026 
	C191.478149,43.417374 180.264359,35.347549 168.366379,37.920322 
	C158.483292,40.057404 154.290741,47.613552 152.219757,55.977844 
	C149.904297,65.329582 149.652679,75.173828 147.845505,84.678741 
	C147.087418,88.665939 144.640152,92.331963 142.231430,96.026886 
	C135.795242,93.783287 133.679214,87.960007 130.981628,82.568512 
	C127.034981,74.680557 123.357910,66.620117 118.839584,59.067745 
	C115.248199,53.064774 104.754761,51.009544 97.949173,54.073929 
	C92.792183,56.395985 89.989746,63.475552 92.630196,70.976204 
	C97.392281,84.503761 102.942329,97.753944 108.079491,111.815575 
	C108.394020,113.155220 108.708542,114.494873 108.351303,115.695915 
	C106.403091,114.472984 104.471916,113.221870 102.503639,112.032143 
	C95.196648,107.615440 88.280067,102.224396 80.463562,99.060081 
	C70.090736,94.860901 61.893715,100.146866 63.134312,111.784279 
	C63.432724,114.583534 64.880684,117.457512 66.434723,119.891922 
	C73.611740,131.134796 83.222862,140.066544 95.132507,145.822662 
	C103.313408,149.776611 112.370842,151.916962 121.740028,155.244293 
	C125.621620,155.998718 129.503204,156.753143 133.521240,157.534088 
	C135.671722,142.270233 136.272583,127.552299 148.838501,116.931366 
	C150.846756,115.902504 152.855026,114.873634 155.685135,113.670639 
	C160.076324,113.459610 164.467514,113.248589 169.174316,113.678589 
	C175.694031,116.148209 178.802536,121.003761 178.987045,127.840927 
	C179.076401,131.152863 179.033630,134.468369 178.390778,138.261856 
M107.617805,194.000153 
	C104.955055,194.412720 103.681602,193.594177 103.940239,190.589615 
	C104.206581,187.495544 103.999382,184.360703 103.999382,181.247330 
	C102.105026,181.247330 100.706657,181.247330 99.245529,181.247330 
	C99.245529,186.902817 99.245529,192.309174 99.245529,198.106110 
	C101.556381,198.106110 103.630417,198.106110 105.744324,198.106110 
	C105.744324,201.241913 105.744324,203.976318 105.744324,207.096695 
	C102.408188,207.096695 99.321922,207.096695 96.250931,207.096695 
	C96.250931,208.562912 96.250931,209.631699 96.250931,210.998474 
	C103.781792,210.998474 111.078514,211.113663 118.363380,210.871689 
	C119.430603,210.836243 120.441376,209.101379 121.478264,208.152847 
	C121.153252,207.728622 120.828239,207.304413 120.503235,206.880188 
	C117.085876,206.880188 113.668526,206.880188 110.263710,206.880188 
	C110.263710,203.723801 110.263710,200.983887 110.263710,198.272400 
	C116.810150,197.794907 116.810150,197.794907 116.458214,194.000137 
	C113.849617,194.000137 111.211243,194.000137 107.617805,194.000153 
M139.250412,197.999557 
	C142.963562,198.251068 142.173019,196.218262 141.452225,193.847763 
	C137.281693,193.847763 133.334473,193.847763 129.207092,193.847763 
	C129.207092,190.859253 129.207092,188.129196 129.207092,184.985687 
	C133.471893,184.985687 137.550705,184.985687 141.782440,184.985687 
	C141.782440,179.509308 141.782440,174.447876 141.782440,169.206940 
	C136.157318,169.206940 130.750427,169.206940 125.014488,169.206940 
	C125.146980,170.619659 125.256386,171.786163 125.385567,173.163544 
	C129.725067,173.163544 133.671417,173.163544 137.792236,173.163544 
	C137.792236,175.812805 137.792236,178.210831 137.792236,181.025192 
	C133.525024,181.025192 129.445236,181.025192 125.223541,181.025192 
	C125.223541,186.837570 125.223541,192.231247 125.223541,197.999908 
	C129.722015,197.999908 134.007660,197.999908 139.250412,197.999557 
M67.030205,192.549759 
	C71.041275,198.798752 72.173866,199.251602 74.929039,195.738617 
	C71.946411,191.993042 68.976341,188.263245 65.648872,184.084625 
	C75.155212,183.896225 75.155212,183.896225 75.818161,181.273468 
	C67.214355,181.273468 58.659027,181.273468 49.212296,181.273468 
	C52.218403,185.965591 56.472538,182.801361 59.907497,184.582642 
	C56.890686,188.419510 53.846062,192.291748 50.129105,197.019089 
	C58.255981,199.154633 58.210953,189.876556 64.240791,188.989639 
	C64.733368,189.641342 65.633400,190.832138 67.030205,192.549759 
M21.465475,181.000137 
	C18.368031,181.000137 15.270587,181.000137 12.321574,181.000137 
	C12.321574,187.027161 12.321574,192.428253 12.321574,197.862305 
	C18.264578,197.862305 23.886271,197.862305 29.708496,197.862305 
	C29.708496,196.549805 29.708496,195.379013 29.708496,193.804413 
	C25.005972,193.804413 20.589426,193.804413 16.312889,193.804413 
	C16.312889,190.653152 16.312889,187.916550 16.312889,185.504715 
	C20.883928,183.426239 26.876040,187.708252 31.252243,181.000137 
	C27.378542,181.000137 24.903379,181.000137 21.465475,181.000137 
M40.999489,170.505478 
	C40.999489,175.620911 40.999489,180.736343 40.999489,185.851776 
	C41.400845,186.103928 41.802200,186.356094 42.203556,186.608261 
	C43.134483,185.733490 44.854179,184.876450 44.874306,183.981201 
	C45.075306,175.039520 44.996334,166.091553 44.996334,157.145355 
	C44.437225,156.920563 43.878113,156.695786 43.319004,156.470993 
	C42.545971,157.653198 41.233906,158.780151 41.105930,160.028488 
	C40.784889,163.160019 40.999630,166.346497 40.999489,170.505478 
M89.468140,157.008682 
	C88.646591,157.676102 87.122200,158.330841 87.109909,159.012863 
	C86.949577,167.904007 87.003487,176.799042 87.003487,186.034988 
	C88.631317,185.859360 89.795525,185.733765 90.406845,185.667816 
	C90.406845,175.821182 90.406845,166.455429 89.468140,157.008682 
M158.000000,170.505524 
	C157.999863,167.008102 157.829346,163.499985 158.048019,160.016296 
	C158.262177,156.604675 156.606827,156.691696 154.000519,157.349335 
	C154.000519,166.041626 154.122025,174.518021 153.940964,182.987961 
	C153.868134,186.394928 155.398804,186.304459 158.000000,185.653015 
	C158.000000,180.786880 158.000000,176.143448 158.000000,170.505524 
M159.949387,147.347687 
	C159.147049,144.528854 158.029602,141.867935 154.397934,143.363907 
	C153.383148,143.781937 152.413284,145.544601 152.375824,146.720795 
	C152.344040,147.717667 153.723679,149.635254 154.415085,149.606644 
	C156.130020,149.535660 157.808517,148.584610 159.949387,147.347687 
z"/>
<path fill="#CDDB95" opacity="1.000000" stroke="none" 
	d="
M142.960815,96.143997 
	C144.640152,92.331963 147.087418,88.665939 147.845505,84.678741 
	C149.652679,75.173828 149.904297,65.329582 152.219757,55.977844 
	C154.290741,47.613552 158.483292,40.057404 168.366379,37.920322 
	C180.264359,35.347549 191.478149,43.417374 190.767532,55.390026 
	C190.237549,64.319321 188.072037,73.248154 185.771347,81.948853 
	C183.423935,90.826233 180.021957,99.424759 176.870819,108.842255 
	C174.059570,110.705292 171.459137,111.871429 168.858704,113.037567 
	C164.467514,113.248589 160.076324,113.459610 155.143005,113.464432 
	C150.720840,107.553490 146.840836,101.848740 142.960815,96.143997 
z"/>
<path fill="#E96B71" opacity="1.000000" stroke="none" 
	d="
M142.596130,96.085442 
	C146.840836,101.848740 150.720840,107.553490 154.732071,113.551498 
	C152.855026,114.873634 150.846756,115.902504 148.173187,116.688171 
	C134.218506,115.959419 120.827675,116.223328 108.163269,111.119972 
	C102.942329,97.753944 97.392281,84.503761 92.630196,70.976204 
	C89.989746,63.475552 92.792183,56.395985 97.949173,54.073929 
	C104.754761,51.009544 115.248199,53.064774 118.839584,59.067745 
	C123.357910,66.620117 127.034981,74.680557 130.981628,82.568512 
	C133.679214,87.960007 135.795242,93.783287 142.596130,96.085442 
z"/>
<path fill="#95D4F1" opacity="1.000000" stroke="none" 
	d="
M121.036484,154.867966 
	C112.370842,151.916962 103.313408,149.776611 95.132507,145.822662 
	C83.222862,140.066544 73.611740,131.134796 66.434723,119.891922 
	C64.880684,117.457512 63.432724,114.583534 63.134312,111.784279 
	C61.893715,100.146866 70.090736,94.860901 80.463562,99.060081 
	C88.280067,102.224396 95.196648,107.615440 102.503639,112.032143 
	C104.471916,113.221870 106.403091,114.472984 109.033661,115.844009 
	C112.504211,120.152107 116.692131,123.978958 117.778641,128.543976 
	C119.813332,137.092819 120.051186,146.069351 121.036484,154.867966 
z"/>
<path fill="#231F20" opacity="1.000000" stroke="none" 
	d="
M169.016510,113.358078 
	C171.459137,111.871429 174.059570,110.705292 176.846054,109.231995 
	C180.346649,113.446960 183.858002,112.517105 189.114609,106.744896 
	C195.608307,99.614288 202.744186,93.148766 211.582260,88.864937 
	C218.172165,85.670792 225.153366,86.183655 228.790909,90.305481 
	C233.146194,95.240631 233.047607,102.230629 228.795090,108.736877 
	C219.979630,122.224297 206.975037,131.018616 194.106583,139.979828 
	C192.138641,141.350250 190.108276,142.631012 187.605591,143.583252 
	C184.419815,141.402924 181.735260,139.592590 179.050690,137.782257 
	C179.033630,134.468369 179.076401,131.152863 178.987045,127.840927 
	C178.802536,121.003761 175.694031,116.148209 169.016510,113.358078 
z"/>
<path fill="#F9DB39" opacity="1.000000" stroke="none" 
	d="
M121.388260,155.056122 
	C120.051186,146.069351 119.813332,137.092819 117.778641,128.543976 
	C116.692131,123.978958 112.504211,120.152107 109.369545,115.913315 
	C108.708542,114.494873 108.394020,113.155220 108.121384,111.467773 
	C120.827675,116.223328 134.218506,115.959419 147.830292,116.724625 
	C136.272583,127.552299 135.671722,142.270233 133.521240,157.534088 
	C129.503204,156.753143 125.621620,155.998718 121.388260,155.056122 
z"/>
<path fill="#231F20" opacity="1.000000" stroke="none" 
	d="
M108.095337,194.000153 
	C111.211243,194.000137 113.849617,194.000137 116.458214,194.000137 
	C116.810150,197.794907 116.810150,197.794907 110.263710,198.272400 
	C110.263710,200.983887 110.263710,203.723801 110.263710,206.880188 
	C113.668526,206.880188 117.085876,206.880188 120.503235,206.880188 
	C120.828239,207.304413 121.153252,207.728622 121.478264,208.152847 
	C120.441376,209.101379 119.430603,210.836243 118.363380,210.871689 
	C111.078514,211.113663 103.781792,210.998474 96.250931,210.998474 
	C96.250931,209.631699 96.250931,208.562912 96.250931,207.096695 
	C99.321922,207.096695 102.408188,207.096695 105.744324,207.096695 
	C105.744324,203.976318 105.744324,201.241913 105.744324,198.106110 
	C103.630417,198.106110 101.556381,198.106110 99.245529,198.106110 
	C99.245529,192.309174 99.245529,186.902817 99.245529,181.247330 
	C100.706657,181.247330 102.105026,181.247330 103.999382,181.247330 
	C103.999382,184.360703 104.206581,187.495544 103.940239,190.589615 
	C103.681602,193.594177 104.955055,194.412720 108.095337,194.000153 
z"/>
<path fill="#231F20" opacity="1.000000" stroke="none" 
	d="
M138.771851,197.999725 
	C134.007660,197.999908 129.722015,197.999908 125.223541,197.999908 
	C125.223541,192.231247 125.223541,186.837570 125.223541,181.025192 
	C129.445236,181.025192 133.525024,181.025192 137.792236,181.025192 
	C137.792236,178.210831 137.792236,175.812805 137.792236,173.163544 
	C133.671417,173.163544 129.725067,173.163544 125.385567,173.163544 
	C125.256386,171.786163 125.146980,170.619659 125.014488,169.206940 
	C130.750427,169.206940 136.157318,169.206940 141.782440,169.206940 
	C141.782440,174.447876 141.782440,179.509308 141.782440,184.985687 
	C137.550705,184.985687 133.471893,184.985687 129.207092,184.985687 
	C129.207092,188.129196 129.207092,190.859253 129.207092,193.847763 
	C133.334473,193.847763 137.281693,193.847763 141.452225,193.847763 
	C142.173019,196.218262 142.963562,198.251068 138.771851,197.999725 
z"/>
<path fill="#231F20" opacity="1.000000" stroke="none" 
	d="
M66.781822,192.286346 
	C65.633400,190.832138 64.733368,189.641342 64.240791,188.989639 
	C58.210953,189.876556 58.255981,199.154633 50.129105,197.019089 
	C53.846062,192.291748 56.890686,188.419510 59.907497,184.582642 
	C56.472538,182.801361 52.218403,185.965591 49.212296,181.273468 
	C58.659027,181.273468 67.214355,181.273468 75.818161,181.273468 
	C75.155212,183.896225 75.155212,183.896225 65.648872,184.084625 
	C68.976341,188.263245 71.946411,191.993042 74.929039,195.738617 
	C72.173866,199.251602 71.041275,198.798752 66.781822,192.286346 
z"/>
<path fill="#231F20" opacity="1.000000" stroke="none" 
	d="
M21.946846,181.000137 
	C24.903379,181.000137 27.378542,181.000137 31.252243,181.000137 
	C26.876040,187.708252 20.883928,183.426239 16.312889,185.504715 
	C16.312889,187.916550 16.312889,190.653152 16.312889,193.804413 
	C20.589426,193.804413 25.005972,193.804413 29.708496,193.804413 
	C29.708496,195.379013 29.708496,196.549805 29.708496,197.862305 
	C23.886271,197.862305 18.264578,197.862305 12.321574,197.862305 
	C12.321574,192.428253 12.321574,187.027161 12.321574,181.000137 
	C15.270587,181.000137 18.368031,181.000137 21.946846,181.000137 
z"/>
<path fill="#231F20" opacity="1.000000" stroke="none" 
	d="
M40.999489,170.008209 
	C40.999630,166.346497 40.784889,163.160019 41.105930,160.028488 
	C41.233906,158.780151 42.545971,157.653198 43.319004,156.470993 
	C43.878113,156.695786 44.437225,156.920563 44.996334,157.145355 
	C44.996334,166.091553 45.075306,175.039520 44.874306,183.981201 
	C44.854179,184.876450 43.134483,185.733490 42.203556,186.608261 
	C41.802200,186.356094 41.400845,186.103928 40.999489,185.851776 
	C40.999489,180.736343 40.999489,175.620911 40.999489,170.008209 
z"/>
<path fill="#231F20" opacity="1.000000" stroke="none" 
	d="
M89.937492,157.049164 
	C90.406845,166.455429 90.406845,175.821182 90.406845,185.667816 
	C89.795525,185.733765 88.631317,185.859360 87.003487,186.034988 
	C87.003487,176.799042 86.949577,167.904007 87.109909,159.012863 
	C87.122200,158.330841 88.646591,157.676102 89.937492,157.049164 
z"/>
<path fill="#231F20" opacity="1.000000" stroke="none" 
	d="
M158.000000,171.002762 
	C158.000000,176.143448 158.000000,180.786880 158.000000,185.653015 
	C155.398804,186.304459 153.868134,186.394928 153.940964,182.987961 
	C154.122025,174.518021 154.000519,166.041626 154.000519,157.349335 
	C156.606827,156.691696 158.262177,156.604675 158.048019,160.016296 
	C157.829346,163.499985 157.999863,167.008102 158.000000,171.002762 
z"/>
<path fill="#F7D938" opacity="1.000000" stroke="none" 
	d="
M178.720734,138.022064 
	C181.735260,139.592590 184.419815,141.402924 187.270721,143.521606 
	C183.887482,145.969299 180.337891,148.108643 175.810623,150.837234 
	C176.845428,145.793686 177.618103,142.027771 178.720734,138.022064 
z"/>
<path fill="#231F20" opacity="1.000000" stroke="none" 
	d="
M159.725525,147.667389 
	C157.808517,148.584610 156.130020,149.535660 154.415085,149.606644 
	C153.723679,149.635254 152.344040,147.717667 152.375824,146.720795 
	C152.413284,145.544601 153.383148,143.781937 154.397934,143.363907 
	C158.029602,141.867935 159.147049,144.528854 159.725525,147.667389 
z"/>
</svg>