<svg version="1.1" id="Layer_1" xmlns="http://www.w3.org/2000/svg" xmlns:xlink="http://www.w3.org/1999/xlink" x="0px" y="0px"
	 width="100%" viewBox="0 0 1510 1502" enable-background="new 0 0 1510 1502" xml:space="preserve">
<path fill="#FFFFFF" opacity="1.000000" stroke="none" 
	d="
M699.000000,1503.000000 
	C466.000031,1503.000000 233.500076,1503.000000 1.000094,1503.000000 
	C1.000062,1002.333435 1.000062,501.666931 1.000031,1.000295 
	C504.333130,1.000197 1007.666260,1.000197 1510.999512,1.000098 
	C1510.999756,501.666351 1510.999756,1002.332703 1510.999878,1502.999512 
	C1240.500000,1503.000000 970.000000,1503.000000 699.000000,1503.000000 
M1000.021301,1029.796021 
	C999.685608,1030.709595 999.246643,1031.599243 999.029053,1032.540161 
	C992.963867,1058.776001 986.912842,1085.015137 980.901367,1111.263184 
	C980.631958,1112.439453 980.754517,1113.705200 980.659912,1115.635620 
	C982.750671,1114.866699 984.165344,1114.503540 985.434998,1113.855957 
	C1004.561096,1104.102173 1023.782715,1094.525391 1042.717529,1084.411865 
	C1049.338623,1080.875488 1055.242310,1075.995605 1062.189209,1071.443237 
	C1063.835205,1070.686890 1065.584961,1070.097656 1067.112183,1069.150024 
	C1117.924072,1037.618774 1167.966797,1004.909241 1214.338867,967.049927 
	C1240.360718,945.804993 1265.781494,923.745361 1290.436523,900.932373 
	C1306.646362,885.933472 1321.275513,869.179077 1336.130737,852.774475 
	C1356.701172,830.058655 1374.171509,805.189697 1386.245483,776.815735 
	C1394.422241,757.600220 1399.002441,737.893982 1394.180908,716.970337 
	C1390.797485,702.287048 1382.700317,690.084961 1373.262573,678.756042 
	C1355.028320,656.867798 1331.796997,646.055725 1303.034180,647.664490 
	C1280.084961,648.948120 1259.184204,656.795593 1239.014160,667.099060 
	C1205.835693,684.047668 1176.481567,706.539001 1148.994385,731.317078 
	C1126.503784,751.591064 1105.278442,773.275146 1083.637817,794.482727 
	C1072.136597,805.753723 1062.326172,818.728210 1048.099854,827.170044 
	C1035.491821,834.651672 1022.490356,840.070068 1007.551208,838.915588 
	C995.690735,837.998962 987.092896,832.541077 983.432007,820.606567 
	C982.981750,819.138733 981.743591,817.912598 981.555115,816.117004 
	C981.903137,809.666016 981.919495,803.176819 982.655945,796.770508 
	C986.029907,767.417908 995.703308,739.731262 1005.675049,712.175415 
	C1019.941406,672.751587 1035.038696,633.620972 1048.803467,594.025330 
	C1060.390381,560.694702 1070.245972,526.789429 1076.560669,491.972107 
	C1082.640869,458.447968 1086.750122,424.884674 1082.050537,390.709045 
	C1077.082397,354.580719 1061.105469,325.076996 1031.423584,303.508026 
	C1006.807190,285.619965 979.136108,277.027374 948.711304,276.829163 
	C918.878174,276.634796 891.795288,285.050995 868.009644,302.943298 
	C843.168823,321.629333 826.779175,346.942902 813.889954,374.784332 
	C800.014832,404.755432 791.465698,436.346771 785.243896,468.642303 
	C776.688904,513.049133 773.108154,557.996277 771.154541,603.087402 
	C770.054077,628.486755 767.230225,653.567078 758.914001,677.703430 
	C753.536621,693.310242 746.451904,707.967712 731.226746,716.691711 
	C728.537231,718.232727 727.877625,720.082764 729.628052,722.825562 
	C733.545654,728.964355 737.088806,735.356628 741.239624,741.329407 
	C755.322937,761.594482 769.488281,781.804993 783.851013,801.872742 
	C793.281189,815.048584 803.204102,827.871277 812.676758,841.017639 
	C814.778687,843.934814 816.827454,844.084351 819.898560,843.237061 
	C851.274780,834.580505 882.951965,833.884338 914.881531,839.756409 
	C916.847168,840.117859 918.985474,839.540161 920.880615,840.276794 
	C922.847229,841.341797 924.703735,842.751587 926.796936,843.420410 
	C961.869507,854.627563 983.853943,878.596436 994.956665,913.175293 
	C1004.700073,943.521057 1005.082642,974.630737 1002.388000,1005.986511 
	C1001.708313,1013.895569 1001.213318,1021.820435 1000.021301,1029.796021 
M480.540283,867.713135 
	C479.560059,868.377136 477.778442,868.985962 477.728302,869.713989 
	C477.375397,874.838806 474.835175,875.263489 471.065979,873.061340 
	C455.854034,864.173706 440.135101,856.022278 425.598267,846.136108 
	C386.640472,819.641907 349.468597,790.526733 308.746094,766.618591 
	C284.242249,752.232422 259.019989,739.434326 231.045441,733.182800 
	C212.529236,729.044983 194.089066,728.510559 176.025055,735.783691 
	C156.397934,743.686157 143.715607,758.745972 133.807266,776.603027 
	C124.544151,793.297119 122.259361,811.052246 125.811714,829.807861 
	C130.576950,854.967407 141.387756,877.520752 154.921173,898.913269 
	C185.820999,947.757202 225.921112,988.167542 270.697601,1024.171997 
	C309.385468,1055.280518 351.072327,1081.794067 395.545074,1103.847412 
	C444.893402,1128.318604 496.313873,1146.751465 550.780029,1156.036011 
	C554.002563,1156.585205 557.339661,1156.462769 561.126221,1156.934204 
	C563.296631,1157.704346 565.416687,1158.689575 567.645264,1159.211426 
	C593.886658,1165.356323 620.280762,1170.603638 647.201538,1172.825562 
	C651.343506,1173.167358 652.806824,1171.690186 653.084534,1167.612305 
	C653.999329,1154.179199 654.408447,1140.638672 656.496155,1127.373047 
	C661.404968,1096.181641 667.060303,1065.105347 672.625549,1034.020386 
	C677.816162,1005.027466 687.079712,977.303833 699.836121,950.788025 
	C714.308472,920.705444 733.520325,894.275879 760.317993,873.825012 
	C761.968750,872.565186 763.144897,870.683411 765.185181,868.976624 
	C765.661377,868.824341 766.193542,868.762329 766.605713,868.506714 
	C780.917969,859.632874 795.456238,851.241638 811.622314,846.052490 
	C814.980835,844.974487 813.957520,842.476318 812.462036,840.436707 
	C804.818420,830.011841 797.096069,819.644714 789.427734,809.237732 
	C768.576050,780.939392 747.276978,752.944702 729.682983,722.412170 
	C728.058289,719.592712 726.084595,718.829651 723.137634,719.286255 
	C713.537292,720.773804 705.024780,717.808533 697.110596,712.682495 
	C684.427979,704.468018 675.005432,693.072388 666.463989,680.870728 
	C646.055969,651.717834 632.100708,619.223755 618.854248,586.514709 
	C605.653992,553.919678 591.886963,521.638000 575.458496,490.534454 
	C564.219727,469.256409 551.333984,449.115143 534.358093,431.834198 
	C519.218811,416.422852 502.224457,403.905975 481.368774,397.253998 
	C457.309143,389.580170 433.058899,390.415680 408.834045,395.989655 
	C383.843933,401.739685 364.013275,414.809387 353.171997,438.803040 
	C345.628052,455.499146 343.665985,473.459961 344.700562,491.602234 
	C346.013245,514.622192 350.373993,537.189087 356.747498,559.326782 
	C371.721619,611.337952 393.239532,660.813721 415.383575,710.047485 
	C430.069916,742.700256 444.561890,775.440491 459.119629,808.151001 
	C462.358185,815.427917 465.507416,822.744507 468.653259,830.857178 
	C471.251801,840.289673 473.676331,849.775574 476.548828,859.123901 
	C477.480530,862.156128 479.585297,864.827942 480.540283,867.713135 
z"/>
<path fill="#0DB04C" opacity="1.000000" stroke="none" 
	d="
M921.043457,839.399536 
	C918.985474,839.540161 916.847168,840.117859 914.881531,839.756409 
	C882.951965,833.884338 851.274780,834.580505 819.898560,843.237061 
	C816.827454,844.084351 814.778687,843.934814 812.676758,841.017639 
	C803.204102,827.871277 793.281189,815.048584 783.851013,801.872742 
	C769.488281,781.804993 755.322937,761.594482 741.239624,741.329407 
	C737.088806,735.356628 733.545654,728.964355 729.628052,722.825562 
	C727.877625,720.082764 728.537231,718.232727 731.226746,716.691711 
	C746.451904,707.967712 753.536621,693.310242 758.914001,677.703430 
	C767.230225,653.567078 770.054077,628.486755 771.154541,603.087402 
	C773.108154,557.996277 776.688904,513.049133 785.243896,468.642303 
	C791.465698,436.346771 800.014832,404.755432 813.889954,374.784332 
	C826.779175,346.942902 843.168823,321.629333 868.009644,302.943298 
	C891.795288,285.050995 918.878174,276.634796 948.711304,276.829163 
	C979.136108,277.027374 1006.807190,285.619965 1031.423584,303.508026 
	C1061.105469,325.076996 1077.082397,354.580719 1082.050537,390.709045 
	C1086.750122,424.884674 1082.640869,458.447968 1076.560669,491.972107 
	C1070.245972,526.789429 1060.390381,560.694702 1048.803467,594.025330 
	C1035.038696,633.620972 1019.941406,672.751587 1005.675049,712.175415 
	C995.703308,739.731262 986.029907,767.417908 982.655945,796.770508 
	C981.919495,803.176819 981.903137,809.666016 980.775513,816.505981 
	C960.345093,824.396484 940.694275,831.898010 921.043457,839.399536 
z"/>
<path fill="#EC1B3B" opacity="1.000000" stroke="none" 
	d="
M468.697784,830.042847 
	C465.507416,822.744507 462.358185,815.427917 459.119629,808.151001 
	C444.561890,775.440491 430.069916,742.700256 415.383575,710.047485 
	C393.239532,660.813721 371.721619,611.337952 356.747498,559.326782 
	C350.373993,537.189087 346.013245,514.622192 344.700562,491.602234 
	C343.665985,473.459961 345.628052,455.499146 353.171997,438.803040 
	C364.013275,414.809387 383.843933,401.739685 408.834045,395.989655 
	C433.058899,390.415680 457.309143,389.580170 481.368774,397.253998 
	C502.224457,403.905975 519.218811,416.422852 534.358093,431.834198 
	C551.333984,449.115143 564.219727,469.256409 575.458496,490.534454 
	C591.886963,521.638000 605.653992,553.919678 618.854248,586.514709 
	C632.100708,619.223755 646.055969,651.717834 666.463989,680.870728 
	C675.005432,693.072388 684.427979,704.468018 697.110596,712.682495 
	C705.024780,717.808533 713.537292,720.773804 723.137634,719.286255 
	C726.084595,718.829651 728.058289,719.592712 729.682983,722.412170 
	C747.276978,752.944702 768.576050,780.939392 789.427734,809.237732 
	C797.096069,819.644714 804.818420,830.011841 812.462036,840.436707 
	C813.957520,842.476318 814.980835,844.974487 811.622314,846.052490 
	C795.456238,851.241638 780.917969,859.632874 766.605713,868.506714 
	C766.193542,868.762329 765.661377,868.824341 764.351440,868.949890 
	C748.402283,869.006958 733.280823,869.393616 718.172974,869.094727 
	C700.891724,868.752747 683.589844,868.255432 666.355713,867.010620 
	C639.052917,865.038635 611.742798,862.897217 584.540100,859.885132 
	C556.781128,856.811462 529.436646,851.200195 502.868683,842.377625 
	C491.379944,838.562500 480.082245,834.171997 468.697784,830.042847 
z"/>
<path fill="#0272BA" opacity="1.000000" stroke="none" 
	d="
M560.623413,1156.652954 
	C557.339661,1156.462769 554.002563,1156.585205 550.780029,1156.036011 
	C496.313873,1146.751465 444.893402,1128.318604 395.545074,1103.847412 
	C351.072327,1081.794067 309.385468,1055.280518 270.697601,1024.171997 
	C225.921112,988.167542 185.820999,947.757202 154.921173,898.913269 
	C141.387756,877.520752 130.576950,854.967407 125.811714,829.807861 
	C122.259361,811.052246 124.544151,793.297119 133.807266,776.603027 
	C143.715607,758.745972 156.397934,743.686157 176.025055,735.783691 
	C194.089066,728.510559 212.529236,729.044983 231.045441,733.182800 
	C259.019989,739.434326 284.242249,752.232422 308.746094,766.618591 
	C349.468597,790.526733 386.640472,819.641907 425.598267,846.136108 
	C440.135101,856.022278 455.854034,864.173706 471.065979,873.061340 
	C474.835175,875.263489 477.375397,874.838806 477.728302,869.713989 
	C477.778442,868.985962 479.560059,868.377136 481.407440,868.296082 
	C482.666779,869.250854 483.058929,869.622742 483.257751,870.039978 
	C484.343079,871.282410 485.621765,872.479492 487.225067,874.041382 
	C489.507019,876.564697 491.464386,878.723206 493.260559,880.897583 
	C493.440369,881.187256 493.781403,881.460876 494.537415,882.286743 
	C495.857880,883.880554 496.763367,884.922241 497.476746,885.933105 
	C497.869751,886.486206 498.454834,887.070068 499.366302,888.088684 
	C500.832184,889.929871 501.971710,891.336365 503.018555,892.793579 
	C502.925903,892.844299 503.034180,893.174316 503.034180,893.174316 
	C503.034180,893.174316 503.317505,892.909790 503.796570,893.685059 
	C504.650116,894.938904 505.024597,895.417419 505.245483,895.916687 
	C505.439209,896.218323 505.786499,896.499268 506.617615,897.528259 
	C507.466675,898.744812 507.831848,899.213196 508.099518,899.740845 
	C508.001984,899.800110 508.081207,900.124023 508.081207,900.124023 
	C508.081207,900.124023 508.366974,899.790833 508.801056,900.536011 
	C509.584808,901.737488 509.934448,902.193848 510.179932,902.713745 
	C510.075775,902.777222 510.113800,903.097717 510.113800,903.097717 
	C510.113800,903.097717 510.401550,902.729614 510.882385,903.585449 
	C511.752319,904.967346 512.141479,905.493469 512.335693,906.036499 
	C512.791260,906.884644 513.441772,907.715820 514.625732,909.483032 
	C515.557190,911.017090 515.955139,911.615051 516.212280,912.353882 
	C526.185669,929.365967 534.323669,947.178101 540.302307,965.881653 
	C544.141724,977.892639 546.973328,990.225830 550.343201,1003.258789 
	C550.735291,1005.189819 551.040955,1006.276672 551.133423,1007.511658 
	C552.052856,1013.206116 553.185486,1018.752502 554.400269,1025.148682 
	C554.760620,1027.099976 555.038757,1028.201416 555.112183,1029.489746 
	C555.411682,1032.264893 555.915894,1034.852905 556.473328,1038.300171 
	C556.758789,1040.280762 556.991089,1041.402344 557.025574,1042.709473 
	C557.335449,1046.675415 557.843201,1050.455688 558.493042,1055.103149 
	C558.798462,1057.130493 558.961731,1058.290771 558.946533,1059.591553 
	C559.310669,1063.961792 559.853271,1068.191162 560.383545,1073.064331 
	C560.658203,1076.680908 560.945251,1079.653687 561.026184,1082.832031 
	C561.176880,1096.110962 561.712219,1109.182739 561.831665,1122.258301 
	C561.920227,1131.954956 561.468445,1141.656616 561.057373,1151.992676 
	C560.779297,1153.970459 560.701355,1155.311768 560.623413,1156.652954 
z"/>
<path fill="#241F20" opacity="1.000000" stroke="none" 
	d="
M920.962036,839.838135 
	C940.694275,831.898010 960.345093,824.396484 980.433228,816.734741 
	C981.743591,817.912598 982.981750,819.138733 983.432007,820.606567 
	C987.092896,832.541077 995.690735,837.998962 1007.551208,838.915588 
	C1022.490356,840.070068 1035.491821,834.651672 1048.099854,827.170044 
	C1062.326172,818.728210 1072.136597,805.753723 1083.637817,794.482727 
	C1105.278442,773.275146 1126.503784,751.591064 1148.994385,731.317078 
	C1176.481567,706.539001 1205.835693,684.047668 1239.014160,667.099060 
	C1259.184204,656.795593 1280.084961,648.948120 1303.034180,647.664490 
	C1331.796997,646.055725 1355.028320,656.867798 1373.262573,678.756042 
	C1382.700317,690.084961 1390.797485,702.287048 1394.180908,716.970337 
	C1399.002441,737.893982 1394.422241,757.600220 1386.245483,776.815735 
	C1374.171509,805.189697 1356.701172,830.058655 1336.130737,852.774475 
	C1321.275513,869.179077 1306.646362,885.933472 1290.436523,900.932373 
	C1265.781494,923.745361 1240.360718,945.804993 1214.338867,967.049927 
	C1167.966797,1004.909241 1117.924072,1037.618774 1067.112183,1069.150024 
	C1065.584961,1070.097656 1063.835205,1070.686890 1061.591797,1071.195801 
	C1047.797363,1062.018433 1034.581543,1053.115845 1021.410706,1044.147339 
	C1014.444458,1039.403687 1007.556641,1034.544922 1000.633423,1029.738037 
	C1001.213318,1021.820435 1001.708313,1013.895569 1002.388000,1005.986511 
	C1005.082642,974.630737 1004.700073,943.521057 994.956665,913.175293 
	C983.853943,878.596436 961.869507,854.627563 926.796936,843.420410 
	C924.703735,842.751587 922.847229,841.341797 920.962036,839.838135 
z"/>
<path fill="#FDC909" opacity="1.000000" stroke="none" 
	d="
M505.399109,895.895935 
	C505.024597,895.417419 504.650116,894.938904 503.848053,893.658752 
	C503.420441,892.857117 503.237518,892.677124 503.237518,892.677124 
	C503.237518,892.677124 503.111206,892.742920 503.111206,892.742920 
	C501.971710,891.336365 500.832184,889.929871 499.422607,887.995972 
	C498.657990,886.967041 498.163422,886.465454 497.668854,885.963867 
	C496.763367,884.922241 495.857880,883.880554 494.607544,882.227112 
	C493.982452,881.370789 493.702118,881.126221 493.421783,880.881653 
	C491.464386,878.723206 489.507019,876.564697 487.280762,873.906860 
	C485.824951,872.269897 484.638000,871.132263 483.451080,869.994629 
	C483.058929,869.622742 482.666779,869.250854 481.714050,868.271851 
	C479.585297,864.827942 477.480530,862.156128 476.548828,859.123901 
	C473.676331,849.775574 471.251801,840.289673 468.675537,830.450012 
	C480.082245,834.171997 491.379944,838.562500 502.868683,842.377625 
	C529.436646,851.200195 556.781128,856.811462 584.540100,859.885132 
	C611.742798,862.897217 639.052917,865.038635 666.355713,867.010620 
	C683.589844,868.255432 700.891724,868.752747 718.172974,869.094727 
	C733.280823,869.393616 748.402283,869.006958 764.029785,869.007080 
	C763.144897,870.683411 761.968750,872.565186 760.317993,873.825012 
	C733.520325,894.275879 714.308472,920.705444 699.836121,950.788025 
	C687.079712,977.303833 677.816162,1005.027466 672.625549,1034.020386 
	C667.060303,1065.105347 661.404968,1096.181641 656.496155,1127.373047 
	C654.408447,1140.638672 653.999329,1154.179199 653.084534,1167.612305 
	C652.806824,1171.690186 651.343506,1173.167358 647.201538,1172.825562 
	C620.280762,1170.603638 593.886658,1165.356323 567.645264,1159.211426 
	C565.416687,1158.689575 563.296631,1157.704346 560.874756,1156.793579 
	C560.701355,1155.311768 560.779297,1153.970459 561.133606,1151.890869 
	C561.350708,1128.310547 561.291504,1105.468628 561.232300,1082.626587 
	C560.945251,1079.653687 560.658203,1076.680908 560.421753,1072.878662 
	C560.023193,1067.849854 559.574097,1063.650391 559.125000,1059.450928 
	C558.961731,1058.290771 558.798462,1057.130493 558.519409,1054.874390 
	C558.010193,1050.026855 557.616821,1046.275391 557.223389,1042.523804 
	C556.991089,1041.402344 556.758789,1040.280762 556.487427,1038.128418 
	C556.071228,1034.499390 555.694092,1031.901123 555.316956,1029.302856 
	C555.038757,1028.201416 554.760620,1027.099976 554.423218,1024.994385 
	C553.358154,1018.447937 552.352417,1012.905762 551.346619,1007.363525 
	C551.040955,1006.276672 550.735291,1005.189819 550.371399,1003.117676 
	C543.843262,970.327515 532.747681,940.269592 516.353088,912.213013 
	C515.955139,911.615051 515.557190,911.017090 514.596924,909.370850 
	C513.533325,907.554932 513.031921,906.787231 512.530579,906.019592 
	C512.141479,905.493469 511.752319,904.967346 510.916809,903.570435 
	C510.470459,902.699707 510.284088,902.650208 510.284088,902.650208 
	C509.934448,902.193848 509.584808,901.737488 508.841614,900.514648 
	C508.448120,899.748108 508.197052,899.681641 508.197052,899.681641 
	C507.831848,899.213196 507.466675,898.744812 506.663300,897.455933 
	C505.949768,896.388977 505.674438,896.142456 505.399109,895.895935 
z"/>
<path fill="#FDC909" opacity="1.000000" stroke="none" 
	d="
M1000.327393,1029.767090 
	C1007.556641,1034.544922 1014.444458,1039.403687 1021.410706,1044.147339 
	C1034.581543,1053.115845 1047.797363,1062.018433 1061.234131,1071.338745 
	C1055.242310,1075.995605 1049.338623,1080.875488 1042.717529,1084.411865 
	C1023.782715,1094.525391 1004.561096,1104.102173 985.434998,1113.855957 
	C984.165344,1114.503540 982.750671,1114.866699 980.659912,1115.635620 
	C980.754517,1113.705200 980.631958,1112.439453 980.901367,1111.263184 
	C986.912842,1085.015137 992.963867,1058.776001 999.029053,1032.540161 
	C999.246643,1031.599243 999.685608,1030.709595 1000.327393,1029.767090 
z"/>
<path fill="#FFFFFF" opacity="1.000000" stroke="none" 
	d="
M516.212280,912.353882 
	C532.747681,940.269592 543.843262,970.327515 550.284912,1002.273438 
	C546.973328,990.225830 544.141724,977.892639 540.302307,965.881653 
	C534.323669,947.178101 526.185669,929.365967 516.212280,912.353882 
z"/>
<path fill="#FFFFFF" opacity="1.000000" stroke="none" 
	d="
M561.026184,1082.832031 
	C561.291504,1105.468628 561.350708,1128.310547 561.333740,1151.254272 
	C561.468445,1141.656616 561.920227,1131.954956 561.831665,1122.258301 
	C561.712219,1109.182739 561.176880,1096.110962 561.026184,1082.832031 
z"/>
<path fill="#FFFFFF" opacity="1.000000" stroke="none" 
	d="
M551.133423,1007.511658 
	C552.352417,1012.905762 553.358154,1018.447937 554.341064,1024.144531 
	C553.185486,1018.752502 552.052856,1013.206116 551.133423,1007.511658 
z"/>
<path fill="#FFFFFF" opacity="1.000000" stroke="none" 
	d="
M558.946533,1059.591553 
	C559.574097,1063.650391 560.023193,1067.849854 560.434082,1072.234985 
	C559.853271,1068.191162 559.310669,1063.961792 558.946533,1059.591553 
z"/>
<path fill="#FFFFFF" opacity="1.000000" stroke="none" 
	d="
M557.025574,1042.709473 
	C557.616821,1046.275391 558.010193,1050.026855 558.377258,1054.007202 
	C557.843201,1050.455688 557.335449,1046.675415 557.025574,1042.709473 
z"/>
<path fill="#FFFFFF" opacity="1.000000" stroke="none" 
	d="
M555.112183,1029.489746 
	C555.694092,1031.901123 556.071228,1034.499390 556.434204,1037.269287 
	C555.915894,1034.852905 555.411682,1032.264893 555.112183,1029.489746 
z"/>
<path fill="#FFFFFF" opacity="1.000000" stroke="none" 
	d="
M483.257751,870.039978 
	C484.638000,871.132263 485.824951,872.269897 486.956177,873.542114 
	C485.621765,872.479492 484.343079,871.282410 483.257751,870.039978 
z"/>
<path fill="#FFFFFF" opacity="1.000000" stroke="none" 
	d="
M512.335693,906.036499 
	C513.031921,906.787231 513.533325,907.554932 514.063477,908.434753 
	C513.441772,907.715820 512.791260,906.884644 512.335693,906.036499 
z"/>
<path fill="#FFFFFF" opacity="1.000000" stroke="none" 
	d="
M497.476746,885.933105 
	C498.163422,886.465454 498.657990,886.967041 499.096252,887.561279 
	C498.454834,887.070068 497.869751,886.486206 497.476746,885.933105 
z"/>
<path fill="#FFFFFF" opacity="1.000000" stroke="none" 
	d="
M493.260559,880.897583 
	C493.702118,881.126221 493.982452,881.370789 494.192596,881.674927 
	C493.781403,881.460876 493.440369,881.187256 493.260559,880.897583 
z"/>
<path fill="#FFFFFF" opacity="1.000000" stroke="none" 
	d="
M505.245514,895.916687 
	C505.674438,896.142456 505.949768,896.388977 506.179443,896.707886 
	C505.786499,896.499268 505.439209,896.218323 505.245514,895.916687 
z"/>
<path fill="#FFFFFF" opacity="1.000000" stroke="none" 
	d="
M503.018555,892.793579 
	C503.111206,892.742920 503.237518,892.677124 503.237518,892.677124 
	C503.237518,892.677124 503.420441,892.857117 503.368958,892.883423 
	C503.317505,892.909790 503.034180,893.174316 503.034180,893.174316 
	C503.034180,893.174316 502.925903,892.844299 503.018555,892.793579 
z"/>
<path fill="#FFFFFF" opacity="1.000000" stroke="none" 
	d="
M508.099518,899.740845 
	C508.197052,899.681641 508.448120,899.748108 508.407532,899.769470 
	C508.366974,899.790833 508.081207,900.124023 508.081207,900.124023 
	C508.081207,900.124023 508.001984,899.800110 508.099518,899.740845 
z"/>
<path fill="#FFFFFF" opacity="1.000000" stroke="none" 
	d="
M510.179932,902.713745 
	C510.284088,902.650208 510.470459,902.699707 510.436005,902.714661 
	C510.401550,902.729614 510.113800,903.097717 510.113800,903.097717 
	C510.113800,903.097717 510.075775,902.777222 510.179932,902.713745 
z"/>
</svg>