<svg version="1.1" id="Layer_1" xmlns="http://www.w3.org/2000/svg" xmlns:xlink="http://www.w3.org/1999/xlink" x="0px" y="0px"
	 width="100%" viewBox="0 0 1146 1254" enable-background="new 0 0 1146 1254" xml:space="preserve">
<path fill="#FFFFFF" opacity="1.000000" stroke="none" 
	d="
M648.000000,1255.000000 
	C432.000000,1255.000000 216.500000,1255.000000 1.000000,1255.000000 
	C1.000000,837.000000 1.000000,419.000000 1.000000,1.000000 
	C383.000000,1.000000 765.000000,1.000000 1147.000000,1.000000 
	C1147.000000,419.000000 1147.000000,837.000000 1147.000000,1255.000000 
	C980.833313,1255.000000 814.666687,1255.000000 648.000000,1255.000000 
M813.018005,786.139709 
	C817.562744,783.372925 822.160583,780.689392 826.643921,777.826538 
	C866.915833,752.110718 905.174622,723.864807 937.864990,688.699097 
	C951.419189,674.118530 963.865845,658.748474 970.986206,639.781860 
	C977.125427,623.429077 974.400085,608.828613 962.880249,595.642151 
	C951.997253,583.184631 938.488586,578.911011 922.457825,581.749207 
	C907.352234,584.423584 894.257751,591.648926 881.786316,600.107361 
	C857.217651,616.770447 836.284546,637.507385 816.178711,659.148376 
	C810.401672,665.366577 803.612000,670.111450 795.438904,672.530762 
	C784.294739,675.829529 777.657410,672.733276 774.054810,661.941467 
	C774.257996,658.289185 774.180786,654.595581 774.710876,650.991394 
	C777.621216,631.205811 785.351318,612.911499 792.386230,594.396484 
	C805.526917,559.811707 818.079956,525.040283 822.470703,487.990875 
	C824.491638,470.938110 824.486755,453.891235 817.164001,437.942780 
	C799.215759,398.852448 744.495361,388.903992 713.045837,418.792389 
	C699.752563,431.425751 691.938232,447.352966 686.210327,464.401611 
	C676.300293,493.898163 673.332092,524.537415 671.854919,555.379639 
	C671.135559,570.397583 670.010132,585.319519 664.203491,599.434814 
	C661.410278,606.224670 657.448853,612.053833 649.870239,615.367188 
	C645.425476,614.475830 639.889954,614.935608 636.763367,612.411377 
	C630.273376,607.171814 623.608704,601.159485 619.621338,594.011353 
	C610.808655,578.213013 603.135620,561.722351 595.867737,545.132996 
	C586.639099,524.068298 578.167297,502.638885 564.043823,484.206390 
	C548.731323,464.222015 529.064880,454.274933 503.202728,457.830566 
	C481.080322,460.872040 468.263000,473.183899 465.809540,495.252319 
	C464.422760,507.726166 466.576660,519.876099 469.673309,531.814026 
	C482.176666,580.015625 506.617493,623.404114 525.345520,669.812927 
	C526.957275,675.355042 528.569031,680.897095 529.949219,687.308655 
	C529.653870,688.382690 529.358521,689.456665 528.699097,691.854675 
	C520.117432,686.555420 511.938019,681.851624 504.120544,676.608215 
	C485.316772,663.996094 466.917877,650.766541 447.897705,638.495789 
	C435.135681,630.262390 421.328949,623.829590 406.054016,621.513672 
	C395.122772,619.856262 384.571289,621.072632 375.838013,628.462402 
	C361.861359,640.288879 355.662659,654.971252 360.546478,673.394775 
	C365.445648,691.876221 375.580383,707.484131 387.620514,721.857056 
	C425.687775,767.299866 473.387329,798.844849 529.303223,817.866577 
	C542.443542,822.336731 556.394836,824.423035 570.717590,827.908142 
	C585.050781,831.354248 599.400330,834.691650 613.340820,835.044861 
	C616.638855,814.450012 619.723145,794.570496 623.024658,774.727173 
	C627.294861,749.061096 635.345215,724.858887 652.306030,704.549316 
	C657.280823,698.592285 663.401672,693.592285 669.696167,688.009277 
	C677.454041,684.087158 685.211853,680.165039 693.797607,676.214783 
	C710.052429,671.556641 726.496399,671.631226 743.521545,674.706970 
	C761.345886,679.565918 773.875061,690.448914 779.357910,708.163330 
	C781.930786,716.475891 783.464783,725.341125 783.878418,734.031555 
	C784.380737,744.585083 783.203613,755.218567 782.304688,766.427368 
	C779.434265,779.877563 776.563782,793.327759 773.693359,806.777954 
	C773.987976,807.153320 774.282593,807.528687 774.577209,807.904053 
	C787.161682,800.694824 799.746094,793.485596 813.018005,786.139709 
M586.983398,937.531372 
	C586.983398,952.782043 586.983398,968.032715 586.983398,983.376831 
	C607.111694,983.376831 626.514648,983.376831 645.982178,983.376831 
	C645.982178,979.702454 645.982178,976.331482 645.982178,972.604858 
	C630.157776,972.604858 614.720337,972.604858 599.032837,972.604858 
	C599.032837,960.824707 599.032837,949.409546 599.032837,937.419067 
	C614.822876,937.419067 630.381226,937.419067 646.056396,937.419067 
	C646.056396,918.108948 646.056396,899.375488 646.056396,880.585938 
	C626.309814,880.585938 606.880981,880.585938 587.218628,880.585938 
	C587.218628,884.136963 587.218628,887.405640 587.218628,891.228699 
	C602.917480,891.228699 618.481750,891.228699 634.334900,891.228699 
	C634.334900,903.172913 634.334900,914.564270 634.334900,926.532532 
	C618.482605,926.532532 602.903870,926.532532 586.983398,926.532532 
	C586.983398,930.252197 586.983398,933.398499 586.983398,937.531372 
M516.526001,1017.423035 
	C514.974365,1017.943970 513.427979,1018.897583 511.870361,1018.916321 
	C500.933838,1019.047485 489.995026,1018.985840 479.021240,1018.985840 
	C479.021240,1022.943298 479.021240,1026.321655 479.021240,1029.650757 
	C508.326904,1029.650757 537.244202,1029.650757 566.249268,1029.650757 
	C566.249268,1025.983765 566.249268,1022.611084 566.249268,1018.798279 
	C553.588562,1018.798279 541.324768,1018.798279 528.976501,1018.798279 
	C528.976501,1006.940552 528.976501,995.531982 528.976501,983.578918 
	C536.803345,983.578918 544.362305,983.578918 551.899780,983.578918 
	C551.899780,979.649414 551.899780,976.277588 551.899780,972.565918 
	C536.061584,972.565918 520.627930,972.565918 504.605896,972.565918 
	C504.605896,956.175903 504.605896,940.124878 504.605896,924.010498 
	C500.423981,924.010498 496.842133,924.010498 493.269714,924.010498 
	C493.269714,943.993713 493.269714,963.692017 493.269714,983.925842 
	C501.225708,983.925842 508.805878,983.925842 516.573181,983.925842 
	C516.573181,995.121704 516.573181,1005.778381 516.526001,1017.423035 
M373.400940,946.054749 
	C370.503906,942.539612 367.606903,939.024475 363.875122,934.496460 
	C377.428894,934.496460 389.620667,934.496460 401.847290,934.496460 
	C401.847290,930.635254 401.847290,927.381897 401.847290,924.009460 
	C372.525513,924.009460 343.466095,924.009460 314.329834,924.009460 
	C314.329834,927.558594 314.329834,930.823608 314.329834,934.883301 
	C326.858734,934.883301 339.152252,934.883301 352.329895,934.883301 
	C339.955994,949.703918 328.353424,963.600647 316.460754,977.844910 
	C319.527252,980.318298 322.316406,982.567932 325.329132,984.997986 
	C336.323059,971.645020 347.069122,958.593079 358.118652,945.172607 
	C369.291260,958.742249 380.031738,971.787048 390.977936,985.081665 
	C394.151093,982.442932 396.882996,980.171082 399.742371,977.793274 
	C390.864136,967.088928 382.364197,956.840698 373.400940,946.054749 
M186.565796,958.498779 
	C186.565796,950.715759 186.565796,942.932800 186.565796,934.635010 
	C202.616058,934.635010 218.181351,934.635010 233.845840,934.635010 
	C233.845840,930.716064 233.845840,927.327881 233.845840,923.955261 
	C214.079407,923.955261 194.648026,923.955261 175.112747,923.955261 
	C175.112747,943.925842 175.112747,963.665039 175.112747,983.431396 
	C194.846558,983.431396 214.281723,983.431396 233.859406,983.431396 
	C233.859406,979.785889 233.859406,976.393677 233.859406,972.673706 
	C218.095459,972.673706 202.649170,972.673706 186.565704,972.673706 
	C186.565704,968.067078 186.565704,963.783325 186.565796,958.498779 
M459.225433,862.500549 
	C459.225433,854.079529 459.225433,845.658508 459.225433,837.191162 
	C455.006378,837.191162 451.415558,837.191162 447.737701,837.191162 
	C447.737701,871.596313 447.737701,905.745117 447.737701,939.984741 
	C451.668976,939.984741 455.250000,939.984741 459.225281,939.984741 
	C459.225281,914.321045 459.225281,888.910828 459.225433,862.500549 
M703.477539,913.500305 
	C703.477539,888.090454 703.477539,862.680603 703.477539,837.366455 
	C699.156372,837.366455 695.590210,837.366455 692.140991,837.366455 
	C692.140991,871.806702 692.140991,905.863647 692.140991,939.810913 
	C696.061035,939.810913 699.614197,939.810913 703.477417,939.810913 
	C703.477417,931.119568 703.477417,922.809937 703.477539,913.500305 
M291.230927,875.500061 
	C291.230927,862.754150 291.230927,850.008240 291.230927,837.382935 
	C286.921631,837.382935 283.375671,837.382935 279.961548,837.382935 
	C279.961548,871.830872 279.961548,905.879089 279.961548,939.813477 
	C283.908875,939.813477 287.464142,939.813477 291.230927,939.813477 
	C291.230927,918.454956 291.230927,897.477539 291.230927,875.500061 
M749.946167,982.518921 
	C749.107788,985.314575 747.178528,988.332642 747.692383,990.852661 
	C748.422546,994.433533 750.949341,997.648010 752.825928,1001.244019 
	C749.215698,1003.113342 748.051697,1006.145325 751.932739,1009.795593 
	C742.922729,1014.687866 741.708130,1022.898132 749.151428,1027.092529 
	C756.421021,1031.189087 764.223999,1030.978394 771.677246,1027.257446 
	C775.221191,1025.488159 777.663452,1021.934326 776.374573,1018.223206 
	C775.314148,1015.170044 772.487244,1012.258911 769.695801,1010.418823 
	C767.200439,1008.773804 763.633911,1008.829041 760.636475,1007.841187 
	C758.948853,1007.285034 757.456543,1006.136230 755.876282,1005.254395 
	C755.718628,1004.784302 755.561035,1004.314270 755.403381,1003.844177 
	C765.907715,1000.883728 778.223877,999.261780 771.218079,983.569519 
	C773.226685,983.301025 774.806824,983.089844 776.514893,982.861572 
	C776.514893,981.193176 776.514893,979.759399 776.514893,977.850830 
	C771.825623,977.850830 767.282227,977.314575 762.932678,978.002991 
	C758.665161,978.678406 754.594788,980.599182 749.946167,982.518921 
M698.301880,1009.275269 
	C706.097351,1014.278198 714.626099,1011.685852 723.022827,1012.231750 
	C723.022827,994.577515 723.022827,977.504883 723.022827,960.283569 
	C720.739075,960.283569 718.659912,960.283569 716.104370,960.283569 
	C716.104370,966.303955 716.104370,972.058594 716.104370,977.950012 
	C714.967529,977.886780 714.307434,977.908508 713.667297,977.805786 
	C703.880188,976.235107 697.349060,978.887512 693.636108,985.960144 
	C689.866333,993.140930 691.496460,1002.303711 698.301880,1009.275269 
M820.764526,998.326111 
	C818.711853,1001.439636 818.081604,998.101929 817.468872,997.353394 
	C812.941406,991.823425 808.749451,986.013184 804.106140,980.587036 
	C802.734314,978.983887 800.252991,978.330200 797.535400,976.830444 
	C797.535400,989.653564 797.535400,1000.735596 797.535400,1012.014404 
	C799.433472,1012.014404 801.115173,1012.014404 803.706177,1012.014404 
	C803.706177,1005.055664 803.706177,998.483521 803.706177,991.911316 
	C804.156372,991.809326 804.606506,991.707336 805.056702,991.605347 
	C806.101074,992.815369 807.194092,993.987244 808.181396,995.242188 
	C811.984680,1000.076599 815.576782,1005.093750 819.632812,1009.703796 
	C821.042908,1011.306458 823.569824,1011.926331 826.201294,1013.320801 
	C826.201294,1000.497925 826.201294,989.286255 826.201294,977.765503 
	C824.266296,977.876587 822.690918,977.966980 820.828064,978.073914 
	C820.828064,984.738342 820.828064,991.036804 820.764526,998.326111 
M850.667175,977.759583 
	C839.162048,976.312256 831.256348,982.347717 830.203308,993.382446 
	C829.224243,1003.642700 836.086487,1012.183716 845.784851,1012.775696 
	C854.407776,1013.302063 861.554871,1007.766479 863.413391,999.121887 
	C865.473511,989.539307 861.044678,981.690796 850.667175,977.759583 
M878.591187,977.943115 
	C875.146423,977.943115 871.701599,977.943115 868.181458,977.943115 
	C868.181458,989.613647 868.181458,1000.839417 868.181458,1012.141602 
	C870.261353,1012.141602 872.033936,1012.141602 874.475098,1012.141602 
	C874.475098,1007.391479 874.475098,1002.868713 874.475098,997.234985 
	C876.946350,998.702148 878.766235,999.283813 879.825684,1000.518127 
	C881.870178,1002.900452 883.763916,1005.505798 885.214355,1008.282837 
	C887.492310,1012.644104 890.732239,1013.172913 895.174072,1011.769653 
	C891.538269,1006.371826 888.116394,1001.291626 884.700256,996.209717 
	C891.605896,987.619202 889.577454,980.636902 878.591187,977.943115 
M686.955139,794.627869 
	C685.765930,801.353943 688.148315,806.425232 693.513672,808.588745 
	C698.682007,810.672852 704.429138,808.758362 707.421692,803.955750 
	C710.304138,799.329651 709.528442,793.698975 705.485535,789.867615 
	C700.031006,784.698486 690.295715,786.244202 686.955139,794.627869 
M781.978760,998.496460 
	C781.978760,1002.929138 781.978760,1007.361755 781.978760,1011.995483 
	C784.505493,1011.995483 786.569153,1011.995483 788.596985,1011.995483 
	C788.596985,1000.516663 788.596985,989.355591 788.596985,978.240051 
	C786.207520,978.240051 784.169128,978.240051 781.978760,978.240051 
	C781.978760,984.927002 781.978760,991.214355 781.978760,998.496460 
M737.598511,977.906982 
	C736.018982,977.984009 734.439453,978.061035 732.865845,978.137817 
	C732.865845,989.726624 732.865845,1000.803955 732.865845,1011.964294 
	C735.100342,1011.964294 737.009216,1011.964294 739.353333,1011.964294 
	C739.353333,1004.209351 739.440796,996.748779 739.316467,989.291687 
	C739.254028,985.542053 738.806641,981.798828 737.598511,977.906982 
M898.818420,1007.272827 
	C898.903320,1008.864441 898.988159,1010.455994 899.074524,1012.075684 
	C901.252563,1012.075684 903.007935,1012.075684 904.737305,1012.075684 
	C904.737305,1000.563171 904.737305,989.341431 904.737305,977.823730 
	C902.648743,977.915649 900.909363,977.992249 898.818420,978.084290 
	C898.818420,987.765625 898.818420,997.047241 898.818420,1007.272827 
z"/>
<path fill="#0DB04C" opacity="1.000000" stroke="none" 
	d="
M650.586609,615.388184 
	C657.448853,612.053833 661.410278,606.224670 664.203491,599.434814 
	C670.010132,585.319519 671.135559,570.397583 671.854919,555.379639 
	C673.332092,524.537415 676.300293,493.898163 686.210327,464.401611 
	C691.938232,447.352966 699.752563,431.425751 713.045837,418.792389 
	C744.495361,388.903992 799.215759,398.852448 817.164001,437.942780 
	C824.486755,453.891235 824.491638,470.938110 822.470703,487.990875 
	C818.079956,525.040283 805.526917,559.811707 792.386230,594.396484 
	C785.351318,612.911499 777.621216,631.205811 774.710876,650.991394 
	C774.180786,654.595581 774.257996,658.289185 773.613525,662.492676 
	C763.128784,666.778259 753.085327,670.512573 743.041931,674.246948 
	C726.496399,671.631226 710.052429,671.556641 693.180725,675.951172 
	C678.571411,655.587830 664.578979,635.487976 650.586609,615.388184 
z"/>
<path fill="#EC1B3B" opacity="1.000000" stroke="none" 
	d="
M650.228394,615.377686 
	C664.578979,635.487976 678.571411,655.587830 692.766724,675.965210 
	C685.211853,680.165039 677.454041,684.087158 668.885254,688.014893 
	C646.328369,687.363037 624.555298,687.176331 602.843262,685.927917 
	C576.196106,684.395874 550.089478,679.738708 525.354309,669.096130 
	C506.617493,623.404114 482.176666,580.015625 469.673309,531.814026 
	C466.576660,519.876099 464.422760,507.726166 465.809540,495.252319 
	C468.263000,473.183899 481.080322,460.872040 503.202728,457.830566 
	C529.064880,454.274933 548.731323,464.222015 564.043823,484.206390 
	C578.167297,502.638885 586.639099,524.068298 595.867737,545.132996 
	C603.135620,561.722351 610.808655,578.213013 619.621338,594.011353 
	C623.608704,601.159485 630.273376,607.171814 636.763367,612.411377 
	C639.889954,614.935608 645.425476,614.475830 650.228394,615.377686 
z"/>
<path fill="#0172BA" opacity="1.000000" stroke="none" 
	d="
M569.973022,827.605957 
	C556.394836,824.423035 542.443542,822.336731 529.303223,817.866577 
	C473.387329,798.844849 425.687775,767.299866 387.620514,721.857056 
	C375.580383,707.484131 365.445648,691.876221 360.546478,673.394775 
	C355.662659,654.971252 361.861359,640.288879 375.838013,628.462402 
	C384.571289,621.072632 395.122772,619.856262 406.054016,621.513672 
	C421.328949,623.829590 435.135681,630.262390 447.897705,638.495789 
	C466.917877,650.766541 485.316772,663.996094 504.120544,676.608215 
	C511.938019,681.851624 520.117432,686.555420 528.699097,691.854675 
	C529.358521,689.456665 529.653870,688.382690 530.345703,687.081299 
	C548.336731,703.803467 558.633362,724.737000 563.960938,748.283630 
	C569.872620,774.412231 572.074463,800.854126 569.973022,827.605957 
z"/>
<path fill="#241F20" opacity="1.000000" stroke="none" 
	d="
M743.281738,674.476929 
	C753.085327,670.512573 763.128784,666.778259 773.518799,662.927368 
	C777.657410,672.733276 784.294739,675.829529 795.438904,672.530762 
	C803.612000,670.111450 810.401672,665.366577 816.178711,659.148376 
	C836.284546,637.507385 857.217651,616.770447 881.786316,600.107361 
	C894.257751,591.648926 907.352234,584.423584 922.457825,581.749207 
	C938.488586,578.911011 951.997253,583.184631 962.880249,595.642151 
	C974.400085,608.828613 977.125427,623.429077 970.986206,639.781860 
	C963.865845,658.748474 951.419189,674.118530 937.864990,688.699097 
	C905.174622,723.864807 866.915833,752.110718 826.643921,777.826538 
	C822.160583,780.689392 817.562744,783.372925 812.418884,785.938721 
	C802.130859,779.097717 792.442017,772.457581 782.753113,765.817444 
	C783.203613,755.218567 784.380737,744.585083 783.878418,734.031555 
	C783.464783,725.341125 781.930786,716.475891 779.357910,708.163330 
	C773.875061,690.448914 761.345886,679.565918 743.281738,674.476929 
z"/>
<path fill="#FDCA08" opacity="1.000000" stroke="none" 
	d="
M570.345337,827.757080 
	C572.074463,800.854126 569.872620,774.412231 563.960938,748.283630 
	C558.633362,724.737000 548.336731,703.803467 530.461426,686.646606 
	C528.569031,680.897095 526.957275,675.355042 525.349915,669.454529 
	C550.089478,679.738708 576.196106,684.395874 602.843262,685.927917 
	C624.555298,687.176331 646.328369,687.363037 668.535767,688.087097 
	C663.401672,693.592285 657.280823,698.592285 652.306030,704.549316 
	C635.345215,724.858887 627.294861,749.061096 623.024658,774.727173 
	C619.723145,794.570496 616.638855,814.450012 613.340820,835.044861 
	C599.400330,834.691650 585.050781,831.354248 570.345337,827.757080 
z"/>
<path fill="#2A2526" opacity="1.000000" stroke="none" 
	d="
M586.983398,937.038086 
	C586.983398,933.398499 586.983398,930.252197 586.983398,926.532532 
	C602.903870,926.532532 618.482605,926.532532 634.334900,926.532532 
	C634.334900,914.564270 634.334900,903.172913 634.334900,891.228699 
	C618.481750,891.228699 602.917480,891.228699 587.218628,891.228699 
	C587.218628,887.405640 587.218628,884.136963 587.218628,880.585938 
	C606.880981,880.585938 626.309814,880.585938 646.056396,880.585938 
	C646.056396,899.375488 646.056396,918.108948 646.056396,937.419067 
	C630.381226,937.419067 614.822876,937.419067 599.032837,937.419067 
	C599.032837,949.409546 599.032837,960.824707 599.032837,972.604858 
	C614.720337,972.604858 630.157776,972.604858 645.982178,972.604858 
	C645.982178,976.331482 645.982178,979.702454 645.982178,983.376831 
	C626.514648,983.376831 607.111694,983.376831 586.983398,983.376831 
	C586.983398,968.032715 586.983398,952.782043 586.983398,937.038086 
z"/>
<path fill="#2B2728" opacity="1.000000" stroke="none" 
	d="
M516.549561,1016.929016 
	C516.573181,1005.778381 516.573181,995.121704 516.573181,983.925842 
	C508.805878,983.925842 501.225708,983.925842 493.269714,983.925842 
	C493.269714,963.692017 493.269714,943.993713 493.269714,924.010498 
	C496.842133,924.010498 500.423981,924.010498 504.605896,924.010498 
	C504.605896,940.124878 504.605896,956.175903 504.605896,972.565918 
	C520.627930,972.565918 536.061584,972.565918 551.899780,972.565918 
	C551.899780,976.277588 551.899780,979.649414 551.899780,983.578918 
	C544.362305,983.578918 536.803345,983.578918 528.976501,983.578918 
	C528.976501,995.531982 528.976501,1006.940552 528.976501,1018.798279 
	C541.324768,1018.798279 553.588562,1018.798279 566.249268,1018.798279 
	C566.249268,1022.611084 566.249268,1025.983765 566.249268,1029.650757 
	C537.244202,1029.650757 508.326904,1029.650757 479.021240,1029.650757 
	C479.021240,1026.321655 479.021240,1022.943298 479.021240,1018.985840 
	C489.995026,1018.985840 500.933838,1019.047485 511.870361,1018.916321 
	C513.427979,1018.897583 514.974365,1017.943970 516.549561,1016.929016 
z"/>
<path fill="#2B2728" opacity="1.000000" stroke="none" 
	d="
M373.632599,946.323608 
	C382.364197,956.840698 390.864136,967.088928 399.742371,977.793274 
	C396.882996,980.171082 394.151093,982.442932 390.977936,985.081665 
	C380.031738,971.787048 369.291260,958.742249 358.118652,945.172607 
	C347.069122,958.593079 336.323059,971.645020 325.329132,984.997986 
	C322.316406,982.567932 319.527252,980.318298 316.460754,977.844910 
	C328.353424,963.600647 339.955994,949.703918 352.329895,934.883301 
	C339.152252,934.883301 326.858734,934.883301 314.329834,934.883301 
	C314.329834,930.823608 314.329834,927.558594 314.329834,924.009460 
	C343.466095,924.009460 372.525513,924.009460 401.847290,924.009460 
	C401.847290,927.381897 401.847290,930.635254 401.847290,934.496460 
	C389.620667,934.496460 377.428894,934.496460 363.875122,934.496460 
	C367.606903,939.024475 370.503906,942.539612 373.632599,946.323608 
z"/>
<path fill="#2C2728" opacity="1.000000" stroke="none" 
	d="
M186.565750,958.999207 
	C186.565704,963.783325 186.565704,968.067078 186.565704,972.673706 
	C202.649170,972.673706 218.095459,972.673706 233.859406,972.673706 
	C233.859406,976.393677 233.859406,979.785889 233.859406,983.431396 
	C214.281723,983.431396 194.846558,983.431396 175.112747,983.431396 
	C175.112747,963.665039 175.112747,943.925842 175.112747,923.955261 
	C194.648026,923.955261 214.079407,923.955261 233.845840,923.955261 
	C233.845840,927.327881 233.845840,930.716064 233.845840,934.635010 
	C218.181351,934.635010 202.616058,934.635010 186.565796,934.635010 
	C186.565796,942.932800 186.565796,950.715759 186.565750,958.999207 
z"/>
<path fill="#2D292A" opacity="1.000000" stroke="none" 
	d="
M459.225342,863.000610 
	C459.225281,888.910828 459.225281,914.321045 459.225281,939.984741 
	C455.250000,939.984741 451.668976,939.984741 447.737701,939.984741 
	C447.737701,905.745117 447.737701,871.596313 447.737701,837.191162 
	C451.415558,837.191162 455.006378,837.191162 459.225433,837.191162 
	C459.225433,845.658508 459.225433,854.079529 459.225342,863.000610 
z"/>
<path fill="#241F20" opacity="1.000000" stroke="none" 
	d="
M703.477478,914.000305 
	C703.477417,922.809937 703.477417,931.119568 703.477417,939.810913 
	C699.614197,939.810913 696.061035,939.810913 692.140991,939.810913 
	C692.140991,905.863647 692.140991,871.806702 692.140991,837.366455 
	C695.590210,837.366455 699.156372,837.366455 703.477539,837.366455 
	C703.477539,862.680603 703.477539,888.090454 703.477478,914.000305 
z"/>
<path fill="#241F20" opacity="1.000000" stroke="none" 
	d="
M291.230927,876.000122 
	C291.230927,897.477539 291.230927,918.454956 291.230927,939.813477 
	C287.464142,939.813477 283.908875,939.813477 279.961548,939.813477 
	C279.961548,905.879089 279.961548,871.830872 279.961548,837.382935 
	C283.375671,837.382935 286.921631,837.382935 291.230927,837.382935 
	C291.230927,850.008240 291.230927,862.754150 291.230927,876.000122 
z"/>
<path fill="#312C2D" opacity="1.000000" stroke="none" 
	d="
M750.192017,982.246094 
	C754.594788,980.599182 758.665161,978.678406 762.932678,978.002991 
	C767.282227,977.314575 771.825623,977.850830 776.514893,977.850830 
	C776.514893,979.759399 776.514893,981.193176 776.514893,982.861572 
	C774.806824,983.089844 773.226685,983.301025 771.218079,983.569519 
	C778.223877,999.261780 765.907715,1000.883728 755.403381,1003.844177 
	C755.561035,1004.314270 755.718628,1004.784302 755.876282,1005.254395 
	C757.456543,1006.136230 758.948853,1007.285034 760.636475,1007.841187 
	C763.633911,1008.829041 767.200439,1008.773804 769.695801,1010.418823 
	C772.487244,1012.258911 775.314148,1015.170044 776.374573,1018.223206 
	C777.663452,1021.934326 775.221191,1025.488159 771.677246,1027.257446 
	C764.223999,1030.978394 756.421021,1031.189087 749.151428,1027.092529 
	C741.708130,1022.898132 742.922729,1014.687866 751.932739,1009.795593 
	C748.051697,1006.145325 749.215698,1003.113342 752.825928,1001.244019 
	C750.949341,997.648010 748.422546,994.433533 747.692383,990.852661 
	C747.178528,988.332642 749.107788,985.314575 750.192017,982.246094 
M758.629272,1014.046082 
	C757.014404,1014.382019 755.106018,1014.298767 753.864685,1015.168030 
	C752.543945,1016.092896 751.206299,1017.871399 751.094055,1019.368469 
	C751.002869,1020.584717 752.629150,1022.968018 753.638062,1023.049683 
	C758.141602,1023.414001 762.891602,1023.922729 767.175171,1022.859192 
	C770.974976,1021.915771 770.857849,1017.692566 767.126282,1015.900146 
	C764.812805,1014.788879 762.040283,1014.633301 758.629272,1014.046082 
M755.835327,994.729370 
	C757.215759,995.191895 758.573425,995.953064 759.980835,996.060059 
	C763.966187,996.362976 766.970825,993.701416 767.010315,990.117188 
	C767.051453,986.380249 763.699036,983.597229 759.613220,983.976318 
	C754.426697,984.457458 752.498169,988.947876 755.835327,994.729370 
z"/>
<path fill="#312C2D" opacity="1.000000" stroke="none" 
	d="
M698.005249,1009.062988 
	C691.496460,1002.303711 689.866333,993.140930 693.636108,985.960144 
	C697.349060,978.887512 703.880188,976.235107 713.667297,977.805786 
	C714.307434,977.908508 714.967529,977.886780 716.104370,977.950012 
	C716.104370,972.058594 716.104370,966.303955 716.104370,960.283569 
	C718.659912,960.283569 720.739075,960.283569 723.022827,960.283569 
	C723.022827,977.504883 723.022827,994.577515 723.022827,1012.231750 
	C714.626099,1011.685852 706.097351,1014.278198 698.005249,1009.062988 
M703.678223,1005.320007 
	C707.675842,1005.753540 711.673462,1006.187073 716.120056,1006.669312 
	C716.120056,999.513733 716.291260,993.380859 715.981262,987.272339 
	C715.916199,985.990784 714.314453,984.148071 713.018616,983.682007 
	C708.106079,981.914917 702.997925,983.926697 700.472839,988.155823 
	C697.267395,993.524353 698.247620,1000.156555 703.678223,1005.320007 
z"/>
<path fill="#FCCA0E" opacity="1.000000" stroke="none" 
	d="
M782.528931,766.122437 
	C792.442017,772.457581 802.130859,779.097717 812.075195,786.007080 
	C799.746094,793.485596 787.161682,800.694824 774.577209,807.904053 
	C774.282593,807.528687 773.987976,807.153320 773.693359,806.777954 
	C776.563782,793.327759 779.434265,779.877563 782.528931,766.122437 
z"/>
<path fill="#312C2D" opacity="1.000000" stroke="none" 
	d="
M820.796265,997.830688 
	C820.828064,991.036804 820.828064,984.738342 820.828064,978.073914 
	C822.690918,977.966980 824.266296,977.876587 826.201294,977.765503 
	C826.201294,989.286255 826.201294,1000.497925 826.201294,1013.320801 
	C823.569824,1011.926331 821.042908,1011.306458 819.632812,1009.703796 
	C815.576782,1005.093750 811.984680,1000.076599 808.181396,995.242188 
	C807.194092,993.987244 806.101074,992.815369 805.056702,991.605347 
	C804.606506,991.707336 804.156372,991.809326 803.706177,991.911316 
	C803.706177,998.483521 803.706177,1005.055664 803.706177,1012.014404 
	C801.115173,1012.014404 799.433472,1012.014404 797.535400,1012.014404 
	C797.535400,1000.735596 797.535400,989.653564 797.535400,976.830444 
	C800.252991,978.330200 802.734314,978.983887 804.106140,980.587036 
	C808.749451,986.013184 812.941406,991.823425 817.468872,997.353394 
	C818.081604,998.101929 818.711853,1001.439636 820.796265,997.830688 
z"/>
<path fill="#312C2D" opacity="1.000000" stroke="none" 
	d="
M851.060303,977.843384 
	C861.044678,981.690796 865.473511,989.539307 863.413391,999.121887 
	C861.554871,1007.766479 854.407776,1013.302063 845.784851,1012.775696 
	C836.086487,1012.183716 829.224243,1003.642700 830.203308,993.382446 
	C831.256348,982.347717 839.162048,976.312256 851.060303,977.843384 
M837.464844,1000.741577 
	C841.289612,1006.526367 846.586548,1008.337708 851.791260,1005.640625 
	C856.650269,1003.122559 859.193298,996.257629 857.205872,991.023499 
	C855.024292,985.278137 849.829834,982.440063 844.130188,983.879333 
	C838.604614,985.274719 835.295044,991.130432 836.379211,997.667358 
	C836.513367,998.475952 836.868958,999.247803 837.464844,1000.741577 
z"/>
<path fill="#2D292A" opacity="1.000000" stroke="none" 
	d="
M879.001221,977.973511 
	C889.577454,980.636902 891.605896,987.619202 884.697388,996.210571 
	C888.116394,1001.291626 891.538269,1006.371826 895.174072,1011.769653 
	C890.732239,1013.172913 887.492310,1012.644104 885.214355,1008.282837 
	C883.763916,1005.505798 881.870178,1002.900452 879.825684,1000.518127 
	C878.766235,999.283813 876.946350,998.702148 874.475098,997.234985 
	C874.475098,1002.868713 874.475098,1007.391479 874.475098,1012.141602 
	C872.033936,1012.141602 870.261353,1012.141602 868.181458,1012.141602 
	C868.181458,1000.839417 868.181458,989.613647 868.181458,977.943115 
	C871.701599,977.943115 875.146423,977.943115 879.001221,977.973511 
M874.192688,989.400452 
	C874.092224,993.560974 877.333679,992.501892 878.922424,991.684448 
	C880.380005,990.934509 882.080811,988.368896 881.805725,986.971130 
	C880.997070,982.862427 877.624146,983.418762 874.190552,983.924622 
	C874.190552,985.642761 874.190552,987.092102 874.192688,989.400452 
z"/>
<path fill="#2B2728" opacity="1.000000" stroke="none" 
	d="
M687.082397,794.270264 
	C690.295715,786.244202 700.031006,784.698486 705.485535,789.867615 
	C709.528442,793.698975 710.304138,799.329651 707.421692,803.955750 
	C704.429138,808.758362 698.682007,810.672852 693.513672,808.588745 
	C688.148315,806.425232 685.765930,801.353943 687.082397,794.270264 
z"/>
<path fill="#312C2D" opacity="1.000000" stroke="none" 
	d="
M781.978760,997.999146 
	C781.978760,991.214355 781.978760,984.927002 781.978760,978.240051 
	C784.169128,978.240051 786.207520,978.240051 788.596985,978.240051 
	C788.596985,989.355591 788.596985,1000.516663 788.596985,1011.995483 
	C786.569153,1011.995483 784.505493,1011.995483 781.978760,1011.995483 
	C781.978760,1007.361755 781.978760,1002.929138 781.978760,997.999146 
z"/>
<path fill="#2A2526" opacity="1.000000" stroke="none" 
	d="
M738.065918,977.979858 
	C738.806641,981.798828 739.254028,985.542053 739.316467,989.291687 
	C739.440796,996.748779 739.353333,1004.209351 739.353333,1011.964294 
	C737.009216,1011.964294 735.100342,1011.964294 732.865845,1011.964294 
	C732.865845,1000.803955 732.865845,989.726624 732.865845,978.137817 
	C734.439453,978.061035 736.018982,977.984009 738.065918,977.979858 
z"/>
<path fill="#2A2526" opacity="1.000000" stroke="none" 
	d="
M898.818420,1006.800842 
	C898.818420,997.047241 898.818420,987.765625 898.818420,978.084290 
	C900.909363,977.992249 902.648743,977.915649 904.737305,977.823730 
	C904.737305,989.341431 904.737305,1000.563171 904.737305,1012.075684 
	C903.007935,1012.075684 901.252563,1012.075684 899.074524,1012.075684 
	C898.988159,1010.455994 898.903320,1008.864441 898.818420,1006.800842 
z"/>
<path fill="#F6F6F6" opacity="1.000000" stroke="none" 
	d="
M759.051514,1014.047363 
	C762.040283,1014.633301 764.812805,1014.788879 767.126282,1015.900146 
	C770.857849,1017.692566 770.974976,1021.915771 767.175171,1022.859192 
	C762.891602,1023.922729 758.141602,1023.414001 753.638062,1023.049683 
	C752.629150,1022.968018 751.002869,1020.584717 751.094055,1019.368469 
	C751.206299,1017.871399 752.543945,1016.092896 753.864685,1015.168030 
	C755.106018,1014.298767 757.014404,1014.382019 759.051514,1014.047363 
z"/>
<path fill="#F6F6F6" opacity="1.000000" stroke="none" 
	d="
M755.538940,994.441284 
	C752.498169,988.947876 754.426697,984.457458 759.613220,983.976318 
	C763.699036,983.597229 767.051453,986.380249 767.010315,990.117188 
	C766.970825,993.701416 763.966187,996.362976 759.980835,996.060059 
	C758.573425,995.953064 757.215759,995.191895 755.538940,994.441284 
z"/>
<path fill="#F6F6F6" opacity="1.000000" stroke="none" 
	d="
M703.315063,1005.124207 
	C698.247620,1000.156555 697.267395,993.524353 700.472839,988.155823 
	C702.997925,983.926697 708.106079,981.914917 713.018616,983.682007 
	C714.314453,984.148071 715.916199,985.990784 715.981262,987.272339 
	C716.291260,993.380859 716.120056,999.513733 716.120056,1006.669312 
	C711.673462,1006.187073 707.675842,1005.753540 703.315063,1005.124207 
z"/>
<path fill="#F6F6F6" opacity="1.000000" stroke="none" 
	d="
M837.293396,1000.389160 
	C836.868958,999.247803 836.513367,998.475952 836.379211,997.667358 
	C835.295044,991.130432 838.604614,985.274719 844.130188,983.879333 
	C849.829834,982.440063 855.024292,985.278137 857.205872,991.023499 
	C859.193298,996.257629 856.650269,1003.122559 851.791260,1005.640625 
	C846.586548,1008.337708 841.289612,1006.526367 837.293396,1000.389160 
z"/>
<path fill="#F6F6F6" opacity="1.000000" stroke="none" 
	d="
M874.191650,988.970947 
	C874.190552,987.092102 874.190552,985.642761 874.190552,983.924622 
	C877.624146,983.418762 880.997070,982.862427 881.805725,986.971130 
	C882.080811,988.368896 880.380005,990.934509 878.922424,991.684448 
	C877.333679,992.501892 874.092224,993.560974 874.191650,988.970947 
z"/>
</svg>